<svg width="24" height="24" viewBox="0 0 24 24" fill="none" xmlns="http://www.w3.org/2000/svg">
<circle cx="12" cy="12" r="12" fill="#002041"/>
<path d="M5.62991 13.539C5.15389 13.539 4.7511 13.4109 4.42154 13.1546C4.1286 12.8616 3.98213 12.4955 3.98213 12.056C3.98213 11.6166 4.1286 11.2505 4.42154 10.9575C4.7511 10.6646 5.15389 10.5181 5.62991 10.5181H10.6831V5.62971C10.6831 5.11707 10.8296 4.71428 11.1225 4.42134C11.4154 4.1284 11.7816 3.98193 12.221 3.98193C12.6604 3.98193 13.0083 4.1284 13.2646 4.42134C13.5576 4.71428 13.704 5.11707 13.704 5.62971V10.5181H18.2629C18.7755 10.5181 19.1783 10.6646 19.4712 10.9575C19.7642 11.2505 19.9106 11.6166 19.9106 12.056C19.9106 12.4955 19.7642 12.8616 19.4712 13.1546C19.1783 13.4109 18.7755 13.539 18.2629 13.539H13.704V18.2627C13.704 18.7387 13.5576 19.1415 13.2646 19.471C13.0083 19.764 12.6604 19.9105 12.221 19.9105C11.7816 19.9105 11.4154 19.764 11.1225 19.471C10.8296 19.1415 10.6831 18.7387 10.6831 18.2627V13.539H5.62991Z" fill="white"/>
</svg>
