<svg width="72" height="72" viewBox="0 0 72 72" fill="none" xmlns="http://www.w3.org/2000/svg">
<rect x="2" y="3" width="67.5" height="65" rx="8" fill="#28D8CB"/>
<path d="M24.3254 21.3892C24.5656 21.0833 24.5074 20.647 24.1944 20.4122L21.5208 18.4037C21.2078 18.169 20.7614 18.2259 20.5212 18.5318L9.94797 31.9796C9.70778 32.2855 9.76601 32.7219 10.079 32.9566L12.755 34.9651C13.068 35.1999 13.5144 35.143 13.7546 34.8371L13.9827 34.5454C13.9997 34.5241 14.0166 34.5004 14.0312 34.4743C14.0458 34.4506 14.0603 34.4292 14.0773 34.4079L24.2162 21.5125C24.2332 21.4888 24.2526 21.4699 24.2744 21.4485C24.2914 21.4343 24.3084 21.4129 24.3254 21.3892Z" fill="white"/>
<path d="M50.9964 18.3586L48.199 20.4597C47.92 20.6683 47.869 21.0596 48.0825 21.3299L48.1286 21.3892C48.1456 21.4106 48.1626 21.4295 48.1796 21.4485C48.199 21.4675 48.2184 21.4888 48.2378 21.5125L58.3865 34.4173C58.4034 34.4387 58.418 34.4624 58.4326 34.4861C58.4447 34.5075 58.4592 34.5288 58.4762 34.5501L58.7504 34.8964C58.9639 35.1691 59.3642 35.2189 59.6408 35.0102L62.4357 32.9092C62.7147 32.7005 62.7657 32.3092 62.5522 32.0389L51.8868 18.4725C51.6733 18.2021 51.2754 18.15 50.9964 18.3586Z" fill="white"/>
<path d="M52.5583 42.653C52.5462 42.6435 52.534 42.634 52.5243 42.6245L52.3812 42.4917L52.3788 42.4941L52.0197 42.1574L50.4378 40.6895C47.114 37.6518 44.5228 35.584 42.3878 33.8767C40.5585 32.4159 38.9742 31.1496 37.4215 29.6842C37.4215 29.6842 37.4215 29.6842 37.419 29.6842L35.2476 29.3213H35.2452L29.9052 34.0284C29.3715 34.5667 28.6533 34.8774 27.8867 34.8987C27.8551 34.8987 27.826 34.9011 27.7945 34.9011C27.0545 34.9011 26.3509 34.6331 25.805 34.1423C25.2349 33.6277 24.9073 32.9163 24.8831 32.1409C24.8588 31.3488 25.1621 30.5687 25.7201 29.9995L25.7225 29.9972L30.3613 25.3138C30.3638 25.3114 30.3613 25.309 30.3613 25.309C29.6019 24.9486 28.7698 24.5834 27.8527 24.2087C27.8284 24.1992 27.8042 24.1874 27.7823 24.1732L24.7981 22.352C24.7957 22.352 24.7957 22.352 24.7933 22.352L15.0304 34.7683V34.7707L19.7129 40.0469C19.7129 40.0493 19.7153 40.0493 19.7178 40.0469L20.2442 39.511C21.3797 38.3514 23.2697 38.3111 24.4561 39.4209C25.0432 39.9686 25.3489 40.6966 25.3707 41.4341C25.3707 41.4365 25.3731 41.4365 25.3756 41.4365L25.6546 41.1519C26.2053 40.5899 26.9453 40.2722 27.7411 40.2556C28.5369 40.239 29.2914 40.5259 29.8664 41.0642C30.4414 41.6025 30.7665 42.3257 30.7835 43.1035C30.7956 43.611 30.6743 44.0995 30.4365 44.5358C30.4365 44.5382 30.4365 44.5406 30.439 44.5406C31.2396 44.4932 32.0597 44.7587 32.6832 45.3421C33.6561 46.2503 33.8574 47.6541 33.2752 48.771C33.2752 48.7734 33.2752 48.7758 33.2776 48.7758C33.9957 48.7568 34.7212 49.0082 35.2816 49.5299C36.2472 50.4333 36.4025 51.8561 35.728 52.928V52.9304L38.7437 55.2661C39.5298 55.8756 40.6774 55.7451 41.2985 54.9768C41.922 54.2061 41.7983 53.2007 41.0049 52.5818L37.8266 50.1725C37.6738 50.0563 37.6059 49.8642 37.6544 49.6816V49.6793C37.6883 49.5512 37.7684 49.4398 37.8849 49.3734C38.0596 49.2761 38.2731 49.2927 38.4259 49.4089L42.5237 52.5249L42.5261 52.5272C43.3947 53.1983 44.6587 53.056 45.3453 52.2071C45.6777 51.7969 45.8281 51.2823 45.765 50.763C45.7092 50.2911 45.486 49.8619 45.1294 49.5441L40.4469 45.8946C40.2552 45.7452 40.2091 45.482 40.3353 45.2781C40.4615 45.0741 40.7235 44.9935 40.9467 45.0907L40.9831 45.1073C41.0219 45.1239 41.0559 45.1453 41.0898 45.1714L45.6219 48.7118C45.668 48.7473 45.7141 48.7853 45.7602 48.8256L46.2017 49.1694C46.6093 49.4848 47.1261 49.6129 47.6599 49.5322C48.1864 49.4516 48.6837 49.1647 49.021 48.7473C49.6396 47.9838 49.5765 46.7933 48.936 46.0748L43.647 41.9772C43.4553 41.8301 43.4068 41.5669 43.5305 41.3654C43.6688 41.1377 43.9745 41.0713 44.2074 41.2065L44.239 41.2254C44.2584 41.2373 44.2754 41.2492 44.2924 41.261L49.2975 45.1073C49.4067 45.1927 49.5086 45.2828 49.6008 45.3824L50.0618 45.7381C50.9303 46.4092 52.1944 46.2669 52.881 45.418C53.57 44.5595 53.4244 43.3241 52.5583 42.653Z" fill="white"/>
<path d="M23.103 43.6372L23.8454 42.8783C24.612 42.0958 24.5829 40.8532 23.7847 40.1039C22.9841 39.3545 21.7128 39.383 20.9461 40.1632L19.6796 41.4555L19.5826 41.5551C19.2114 41.9345 19.0149 42.4302 19.0246 42.9542C19.0343 43.4783 19.2551 43.9668 19.6433 44.3296C20.4245 45.06 21.657 45.0505 22.4261 44.3225C22.4455 44.3059 22.4625 44.2869 22.4819 44.2679L22.7657 43.9786L23.103 43.6372Z" fill="white"/>
<path d="M34.6082 50.2081C34.2564 49.8785 33.8027 49.7148 33.3514 49.7148C32.8977 49.7148 32.444 49.8808 32.0922 50.2081C32.0728 50.227 32.0534 50.2436 32.0364 50.2626L31.4153 50.8958L30.8864 51.4364C30.1926 52.1455 30.2168 53.2718 30.9422 53.95C31.6677 54.6282 32.8201 54.6045 33.514 53.8955L34.664 52.7217C34.778 52.6031 34.875 52.4751 34.9503 52.3375C35.3312 51.6522 35.2123 50.7748 34.6082 50.2081Z" fill="white"/>
<path d="M30.9443 49.9473L32.0725 48.7972C32.4437 48.4178 32.6402 47.9222 32.6305 47.3981C32.6208 46.874 32.4 46.3855 32.0118 46.0227C31.6236 45.6599 31.1166 45.4678 30.5804 45.4773C30.0442 45.4891 29.5444 45.7026 29.1732 46.082L27.3948 47.8961L27.0309 48.2684C26.2642 49.0509 26.2934 50.2935 27.0916 51.0429C27.8922 51.7922 29.1635 51.7637 29.9302 50.9836L30.6071 50.2935L30.9443 49.9473Z" fill="white"/>
<path d="M26.8946 46.9285L29.2528 44.5216C29.624 44.1422 29.8206 43.6466 29.8109 43.1225C29.7987 42.5985 29.5804 42.11 29.1922 41.7472C28.8161 41.3938 28.3236 41.2017 27.8044 41.2017C27.7899 41.2017 27.7753 41.2017 27.7608 41.2017C27.2246 41.2136 26.7248 41.427 26.3536 41.8064L23.9347 44.2774L23.2602 44.9698L23.2093 45.022C22.8381 45.4014 22.6416 45.897 22.6513 46.4211C22.6634 46.9451 22.8817 47.4336 23.2699 47.7964C23.6581 48.1593 24.1652 48.3537 24.7014 48.3418C25.2375 48.33 25.7373 48.1166 26.1085 47.7372L26.5574 47.2795L26.8946 46.9285Z" fill="white"/>
<path d="M47.6523 22.3401L46.2888 23.1156C45.3912 23.6254 44.377 23.8436 43.3605 23.7487C43.3483 23.7487 43.3386 23.7463 43.3265 23.7463L42.9941 23.7179C37.9137 23.1914 33.6413 23.9858 33.6 23.9929C33.4908 24.0143 33.3841 24.0451 33.2749 24.0878L33.2579 24.0949L33.2409 24.0997C32.928 24.1969 32.6441 24.37 32.416 24.6024L32.4136 24.6048L31.9793 25.0434L31.6251 25.3992L26.4186 30.654C26.0425 31.0406 25.8339 31.5694 25.8509 32.11C25.8678 32.6294 26.0838 33.1036 26.4622 33.4427C26.8359 33.7795 27.3163 33.9478 27.7942 33.9478C28.3134 33.9478 28.8326 33.751 29.2159 33.3574L29.2402 33.3336L34.7258 28.5032C34.8398 28.4036 34.9854 28.3491 35.1358 28.3491C35.1697 28.3491 35.2061 28.3515 35.2401 28.3586L35.7569 28.4439L37.8337 28.7902L37.8822 28.7973L37.9914 28.8992C38.0059 28.9135 38.0205 28.9277 38.035 28.9396C39.5781 30.4027 41.1672 31.6713 43.0038 33.1392C45.151 34.856 47.7567 36.9357 51.0999 39.9924C51.5002 40.3576 51.9103 40.737 52.3324 41.1306C53.7566 39.5869 55.1104 37.9506 56.3574 36.267L57.4492 34.7944L57.4565 34.7849L47.662 22.3306L47.6523 22.3401Z" fill="white"/>
</svg>
