<svg width="92" height="92" viewBox="0 0 92 92" fill="none" xmlns="http://www.w3.org/2000/svg">
<rect width="92" height="92" rx="8" fill="#28D8CB"/>
<path fill-rule="evenodd" clip-rule="evenodd" d="M81.7452 48.7256L73.6947 25.3169C73.0632 23.4262 70.964 22.5155 69.1798 23.2587L63.1083 25.8033C61.4802 26.4758 60.6052 28.3016 61.1694 30.0278C60.6511 30.048 60.0468 29.9729 59.4167 29.6886C59.2864 29.6294 59.1447 29.5659 58.9957 29.4981C57.707 28.9107 55.7681 28.0274 53.7419 27.502C51.846 27.0113 49.5892 26.7515 47.5645 27.5641C46.6265 27.9307 45.4881 28.5167 44.2581 29.2859C44.2395 29.2773 44.2208 29.2686 44.2022 29.2585C43.6209 28.9771 42.8032 28.6105 41.861 28.2742C40.0653 27.6319 37.4706 26.9666 35.1881 27.5684C33.6144 27.9826 31.6197 28.1111 29.9457 28.1226C29.3514 28.127 28.813 28.1169 28.3663 28.101C28.0169 27.2105 27.2995 26.4744 26.3415 26.1295L20.1841 23.9111C18.3326 23.2154 16.325 24.3095 15.778 26.1497L8.78145 50.0145C8.23158 51.7753 9.1781 53.6328 10.885 54.2477L17.041 56.466C17.6281 56.6868 18.2309 56.7273 18.798 56.6205L18.7922 56.6363C17.7512 59.3555 19.1416 62.4441 21.7506 63.7157C21.7621 63.7215 21.7736 63.7272 21.785 63.7316L22.1158 63.8831C22.9349 64.2843 23.8098 64.4647 24.6618 64.4388C24.5229 66.7769 25.9019 69.0818 28.087 70.1311L28.1128 70.1441L28.4479 70.2971C30.1763 71.1328 32.1423 71.0288 33.6473 70.095C34.2473 71.1486 35.1652 72.0334 36.3007 72.5789L36.3265 72.5919L36.6616 72.7449C39.3866 74.0612 42.7058 73.048 43.8672 70.121L44.7421 67.9113L49.2585 70.694C51.425 72.0233 54.1027 71.5686 55.7925 69.727L55.7967 69.7212C56.7576 68.6647 57.2573 67.3153 57.3161 65.9542C59.2349 66.5229 61.3298 65.885 62.6859 64.2526L62.6887 64.2497C63.6066 63.1398 64.0505 61.7571 64.0448 60.3846C66.5751 60.5794 69.0079 58.8417 69.7812 56.1442L69.7841 56.1312C69.9072 55.6881 69.9817 55.2363 70.0103 54.7846C70.954 55.7646 72.4403 56.1182 73.7549 55.5683H73.7577L79.8263 53.0238C81.4788 52.3411 82.3552 50.472 81.7409 48.7228L81.7452 48.7256ZM18.3039 53.2778C18.2953 53.3038 18.2753 53.3326 18.2366 53.3528C18.218 53.3629 18.2037 53.3644 18.1965 53.3658C18.1922 53.3658 18.1908 53.3658 18.1894 53.3658L18.1593 53.3543L11.989 51.1316C11.9131 51.1042 11.9017 51.0421 11.9131 51.0046C11.9174 50.9916 11.9203 50.9801 11.9246 50.9671L18.924 27.0993C18.9326 27.0734 18.9526 27.0445 18.9913 27.0243C19.0099 27.0142 19.0242 27.0128 19.0314 27.0113C19.0357 27.0113 19.0371 27.0113 19.0385 27.0113L19.0686 27.0229L25.2389 29.247C25.3148 29.2744 25.3262 29.3365 25.3148 29.374C25.3105 29.387 25.3076 29.3985 25.3033 29.4115L18.3054 53.2792L18.3039 53.2778ZM23.542 60.9013C23.5277 60.894 23.5119 60.8868 23.4976 60.8796L23.1654 60.7281C21.954 60.1277 21.4943 58.784 21.8523 57.8357L25.2661 49.2481C25.2661 49.2481 25.2661 49.2481 25.2661 49.2467C25.604 48.4067 26.6494 47.9102 27.782 48.4702C27.7963 48.4774 27.8121 48.4846 27.8264 48.4918L28.1586 48.6434C29.3701 49.2438 29.8283 50.5875 29.4717 51.5357L26.058 60.1233C26.058 60.1233 26.058 60.1233 26.058 60.1248C25.72 60.9648 24.6747 61.4613 23.542 60.9013ZM29.8612 67.308C29.8498 67.3023 29.8369 67.2965 29.8254 67.2907L29.4889 67.1363C28.1787 66.4998 27.6718 65.0305 28.0813 63.9986L31.3734 55.7184C31.7428 54.786 32.8855 54.2506 34.1213 54.8539L35.9012 58.1633L32.6091 66.4435C32.2397 67.3759 31.097 67.9113 29.8612 67.308ZM34.1213 54.8539L34.4936 55.0256L34.1571 54.8712C34.1456 54.8654 34.1327 54.8596 34.1213 54.8539ZM38.0763 69.7573C38.0649 69.7515 38.052 69.7458 38.0405 69.74L37.704 69.5856C36.3938 68.9491 35.8869 67.4812 36.2964 66.4478L38.3097 61.3573C38.6792 60.4264 39.8233 59.8895 41.0577 60.4928C41.0691 60.4986 41.082 60.5044 41.0935 60.5101L41.43 60.6646C42.7402 61.3011 43.2471 62.7689 42.8376 63.8023L40.8228 68.8942C40.4534 69.8251 39.3107 70.3606 38.0749 69.7587L38.0763 69.7573ZM66.6295 55.232C66.1226 56.9856 64.4687 57.4763 63.346 56.7446L61.9427 55.8396C61.788 55.7141 61.6248 55.5943 61.453 55.4846L52.5018 49.7489L52.4975 49.7461C51.7329 49.2568 50.7205 49.4834 50.2336 50.2527C49.7467 51.0219 49.9701 52.0438 50.7319 52.5359L50.7362 52.5388L59.9752 58.4996C60.8974 59.3584 61.0807 61.0297 60.1714 62.1324C59.5198 62.9147 58.5576 63.0445 57.8086 62.5856L48.2747 56.8139C47.4972 56.3433 46.4891 56.5974 46.0222 57.3796C45.5554 58.1619 45.8074 59.1794 46.5836 59.6499L52.9099 63.4819C54.1471 64.2353 54.4708 66.2804 53.3796 67.4841C52.7037 68.2188 51.7386 68.3414 50.9653 67.868L45.9707 64.7895C46.9201 62.0198 45.4595 58.9341 42.8261 57.6712L42.8003 57.6582L42.4653 57.5052C41.4486 57.0145 40.3488 56.8471 39.3107 56.9827C39.1546 54.9116 37.8444 52.9704 35.8912 52.0322L35.8654 52.0192L35.5303 51.8663C34.6697 51.4506 33.7504 51.2673 32.8569 51.3034C33.0516 49.0028 31.7299 46.7079 29.572 45.6572C29.5605 45.6514 29.5491 45.6457 29.5376 45.6413L29.2068 45.4898C27.4326 44.6209 25.3935 44.7869 23.9057 45.8492L28.1414 31.4047C28.6469 31.4235 29.2713 31.4364 29.9701 31.4321C31.7242 31.4191 34.0454 31.2907 36.0201 30.7696C37.2859 30.4362 39.0701 30.7855 40.767 31.3931C40.8887 31.4364 41.0075 31.4812 41.1235 31.5259C39.1718 33.0919 37.2129 35.0086 35.6034 37.1649L35.589 37.1836C34.0325 39.3356 34.19 42.3535 35.8253 44.3409L35.8382 44.3597C35.8711 44.4102 35.9069 44.4578 35.9456 44.504C37.399 46.2533 39.7374 46.7974 41.7464 45.93C42.6972 45.523 43.5707 44.8836 44.3282 44.263C44.765 43.9051 45.2519 43.4749 45.7015 43.078C45.9864 42.8269 46.2571 42.5873 46.4919 42.3881C47.1793 41.8007 47.7377 41.3851 48.2131 41.1498C48.6714 40.9246 48.8604 40.9607 48.9334 40.9853C49.436 41.1527 50.4097 41.6607 51.7873 42.5022C53.1176 43.3147 54.697 44.3582 56.3566 45.4941C59.673 47.7659 63.2515 50.3696 65.6772 52.1549L65.6887 52.1636C66.5393 52.7784 66.9746 53.9951 66.6338 55.2306L66.6295 55.232ZM58.1981 42.7591C56.517 41.6073 54.8846 40.5292 53.4856 39.6733C52.1338 38.8478 50.8622 38.1434 49.9572 37.8432C48.7673 37.4492 47.6504 37.7436 46.7669 38.1795C45.9005 38.6067 45.0814 39.2548 44.3669 39.8638C44.0275 40.1539 43.7268 40.4195 43.4376 40.6764C43.0466 41.0228 42.6743 41.3519 42.2533 41.6968C41.566 42.2611 40.9775 42.6638 40.4591 42.8846L40.4534 42.8875C39.8004 43.1704 39.0357 43.0232 38.5088 42.4372L38.5016 42.4271C38.4644 42.3694 38.4229 42.316 38.3785 42.264C37.6525 41.4168 37.5809 40.0515 38.2324 39.1407C40.2243 36.4735 42.829 34.222 45.1215 32.6632C45.2203 32.6113 45.3149 32.5478 45.4036 32.4742C46.691 31.6212 47.8652 30.9934 48.7558 30.647L48.7745 30.6397C49.8312 30.214 51.2618 30.2746 52.9242 30.7061C54.6555 31.155 56.3309 31.9156 57.6425 32.5117C57.7915 32.5795 57.9361 32.6445 58.075 32.708C59.653 33.4195 61.1365 33.4152 62.2047 33.242C62.2262 33.2391 62.2477 33.2348 62.2692 33.2305L67.9512 49.7533C67.8395 49.658 67.7249 49.5671 67.6046 49.4805C65.1717 47.6894 61.5604 45.0611 58.1981 42.7591ZM78.6493 49.9063C78.6393 49.9279 78.6206 49.951 78.5848 49.9654L72.5019 52.5143C72.479 52.5244 72.4461 52.5258 72.4074 52.5085C72.3888 52.4999 72.3759 52.4898 72.3687 52.4825C72.363 52.4753 72.3573 52.4681 72.3544 52.4566L72.3487 52.4378L64.9126 30.8129C64.8882 30.7119 64.8538 30.6123 64.8095 30.5142L64.294 29.0146L64.2882 29.0002C64.2811 28.98 64.2796 28.9655 64.2811 28.9569C64.2811 28.9468 64.2839 28.9352 64.2897 28.9237C64.2997 28.902 64.3183 28.8789 64.3541 28.8645L70.4356 26.3156C70.4585 26.3055 70.4929 26.3027 70.5315 26.32C70.5502 26.3286 70.563 26.3387 70.5702 26.3474C70.5774 26.3546 70.5817 26.3618 70.5845 26.3734L70.5903 26.3921L78.645 49.8153L78.6507 49.8298C78.6579 49.85 78.6593 49.8644 78.6579 49.8731C78.6579 49.8832 78.655 49.8947 78.6493 49.9063Z" fill="white"/>
</svg>
