<svg width="24" height="24" viewBox="0 0 24 24" fill="none" xmlns="http://www.w3.org/2000/svg">
<path d="M19.1628 23H4.83724C4.33113 22.9987 3.83025 22.8976 3.3633 22.7027C2.89636 22.5077 2.47252 22.2227 2.11607 21.8638C1.75962 21.505 1.47756 21.0795 1.28605 20.6117C1.09455 20.1439 0.997361 19.6429 1.00005 19.1375V6.87552C1.00546 5.86279 1.41212 4.89339 2.13115 4.17919C2.85018 3.46499 3.82309 3.06408 4.83724 3.0641H19.1628C20.1769 3.06408 21.1498 3.46499 21.8688 4.17919C22.5879 4.89339 22.9945 5.86279 22.9999 6.87552V19.1375C23.0026 19.6429 22.9055 20.1439 22.7139 20.6117C22.5224 21.0795 22.2404 21.505 21.8839 21.8638C21.5275 22.2227 21.1036 22.5077 20.6367 22.7027C20.1697 22.8976 19.6689 22.9987 19.1628 23ZM4.83724 4.59684C4.23016 4.59682 3.64764 4.83624 3.21646 5.263C2.78527 5.68975 2.54033 6.26931 2.53493 6.87552V19.1375C2.53086 19.442 2.58741 19.7442 2.70129 20.0267C2.81517 20.3092 2.98412 20.5663 3.19831 20.7831C3.41251 20.9998 3.66769 21.1719 3.94904 21.2894C4.23039 21.4068 4.5323 21.4673 4.83724 21.4673H19.1628C19.4677 21.4673 19.7696 21.4068 20.051 21.2894C20.3323 21.1719 20.5875 20.9998 20.8017 20.7831C21.0159 20.5663 21.1848 20.3092 21.2987 20.0267C21.4126 19.7442 21.4691 19.442 21.4651 19.1375V6.87552C21.4597 6.26931 21.2147 5.68975 20.7835 5.263C20.3524 4.83624 19.7698 4.59682 19.1628 4.59684H4.83724Z" fill="#002041"/>
<path d="M19.1628 23H4.83724C4.33113 22.9987 3.83025 22.8976 3.3633 22.7027C2.89636 22.5077 2.47252 22.2227 2.11607 21.8638C1.75962 21.505 1.47756 21.0795 1.28605 20.6117C1.09455 20.1439 0.997361 19.6429 1.00005 19.1375V9.40966C1.00005 9.20641 1.08091 9.01148 1.22483 8.86775C1.36875 8.72403 1.56396 8.64329 1.76749 8.64329H22.2325C22.436 8.64329 22.6312 8.72403 22.7752 8.86775C22.9191 9.01148 22.9999 9.20641 22.9999 9.40966V19.1375C23.0026 19.6429 22.9055 20.1439 22.7139 20.6117C22.5224 21.0795 22.2404 21.505 21.8839 21.8638C21.5275 22.2227 21.1036 22.5077 20.6367 22.7027C20.1697 22.8976 19.6689 22.9987 19.1628 23ZM2.53493 10.176V19.1375C2.53086 19.442 2.58741 19.7442 2.70129 20.0267C2.81517 20.3092 2.98412 20.5663 3.19831 20.7831C3.41251 20.9998 3.66769 21.1719 3.94904 21.2894C4.23039 21.4068 4.5323 21.4673 4.83724 21.4673H19.1628C19.4677 21.4673 19.7696 21.4068 20.051 21.2894C20.3323 21.1719 20.5875 20.9998 20.8017 20.7831C21.0159 20.5663 21.1848 20.3092 21.2987 20.0267C21.4126 19.7442 21.4691 19.442 21.4651 19.1375V10.1454L2.53493 10.176Z" fill="#002041"/>
<path d="M6.37212 6.59963C6.17285 6.59716 5.98214 6.5184 5.83933 6.3796C5.69653 6.2408 5.61253 6.05254 5.60468 5.85369V1.76637C5.60468 1.56312 5.68554 1.36819 5.82946 1.22447C5.97338 1.08074 6.16858 1 6.37212 1C6.57566 1 6.77086 1.08074 6.91478 1.22447C7.0587 1.36819 7.13956 1.56312 7.13956 1.76637V5.85369C7.13171 6.05254 7.04771 6.2408 6.90491 6.3796C6.7621 6.5184 6.57139 6.59716 6.37212 6.59963Z" fill="#002041"/>
<path d="M12 6.59963C11.8007 6.59716 11.61 6.5184 11.4672 6.3796C11.3244 6.2408 11.2404 6.05254 11.2326 5.85369V1.76637C11.2326 1.56312 11.3134 1.36819 11.4573 1.22447C11.6013 1.08074 11.7965 1 12 1C12.2035 1 12.3987 1.08074 12.5427 1.22447C12.6866 1.36819 12.7674 1.56312 12.7674 1.76637V5.85369C12.7596 6.05254 12.6756 6.2408 12.5328 6.3796C12.39 6.5184 12.1993 6.59716 12 6.59963Z" fill="#002041"/>
<path d="M17.6279 6.59963C17.4286 6.59716 17.2379 6.5184 17.0951 6.3796C16.9523 6.2408 16.8683 6.05254 16.8604 5.85369V1.76637C16.8604 1.56312 16.9413 1.36819 17.0852 1.22447C17.2291 1.08074 17.4243 1 17.6279 1C17.8314 1 18.0266 1.08074 18.1705 1.22447C18.3145 1.36819 18.3953 1.56312 18.3953 1.76637V5.85369C18.3875 6.05254 18.3035 6.2408 18.1607 6.3796C18.0179 6.5184 17.8271 6.59716 17.6279 6.59963Z" fill="#002041"/>
<path d="M6.88375 14.7743C7.59015 14.7743 8.16281 14.2024 8.16281 13.497C8.16281 12.7916 7.59015 12.2197 6.88375 12.2197C6.17734 12.2197 5.60468 12.7916 5.60468 13.497C5.60468 14.2024 6.17734 14.7743 6.88375 14.7743Z" fill="#002041"/>
<path d="M12 14.7743C12.7064 14.7743 13.2791 14.2024 13.2791 13.497C13.2791 12.7916 12.7064 12.2197 12 12.2197C11.2936 12.2197 10.7209 12.7916 10.7209 13.497C10.7209 14.2024 11.2936 14.7743 12 14.7743Z" fill="#002041"/>
<path d="M17.1163 14.7743C17.8227 14.7743 18.3953 14.2024 18.3953 13.497C18.3953 12.7916 17.8227 12.2197 17.1163 12.2197C16.4098 12.2197 15.8372 12.7916 15.8372 13.497C15.8372 14.2024 16.4098 14.7743 17.1163 14.7743Z" fill="#002041"/>
<path d="M6.88375 18.8616C7.59015 18.8616 8.16281 18.2897 8.16281 17.5843C8.16281 16.8789 7.59015 16.307 6.88375 16.307C6.17734 16.307 5.60468 16.8789 5.60468 17.5843C5.60468 18.2897 6.17734 18.8616 6.88375 18.8616Z" fill="#002041"/>
<path d="M12 18.8616C12.7064 18.8616 13.2791 18.2897 13.2791 17.5843C13.2791 16.8789 12.7064 16.307 12 16.307C11.2936 16.307 10.7209 16.8789 10.7209 17.5843C10.7209 18.2897 11.2936 18.8616 12 18.8616Z" fill="#002041"/>
<path d="M17.1163 18.8616C17.8227 18.8616 18.3953 18.2897 18.3953 17.5843C18.3953 16.8789 17.8227 16.307 17.1163 16.307C16.4098 16.307 15.8372 16.8789 15.8372 17.5843C15.8372 18.2897 16.4098 18.8616 17.1163 18.8616Z" fill="#002041"/>
</svg>
