<svg width="24" height="24" viewBox="0 0 24 24" fill="none" xmlns="http://www.w3.org/2000/svg">
<path d="M20.6429 6H17.3271L16.9893 4.7025C16.8614 4.21608 16.567 3.78438 16.1528 3.47593C15.7385 3.16748 15.2282 2.99997 14.7029 3H9.29714C8.77177 2.99997 8.26145 3.16748 7.84721 3.47593C7.43297 3.78438 7.13855 4.21608 7.01071 4.7025L6.67286 6H3.35714C2.73199 6 2.13244 6.23705 1.69039 6.65901C1.24834 7.08097 1 7.65326 1 8.25V18.75C1 19.3467 1.24834 19.919 1.69039 20.341C2.13244 20.7629 2.73199 21 3.35714 21H20.6429C21.268 21 21.8676 20.7629 22.3096 20.341C22.7517 19.919 23 19.3467 23 18.75V8.25C23 7.65326 22.7517 7.08097 22.3096 6.65901C21.8676 6.23705 21.268 6 20.6429 6ZM21.4286 18.75C21.4286 18.9489 21.3458 19.1397 21.1984 19.2803C21.0511 19.421 20.8512 19.5 20.6429 19.5H3.35714C3.14876 19.5 2.94891 19.421 2.80156 19.2803C2.65421 19.1397 2.57143 18.9489 2.57143 18.75V8.25C2.57143 8.05109 2.65421 7.86032 2.80156 7.71967C2.94891 7.57902 3.14876 7.5 3.35714 7.5H7.28571C7.4652 7.50499 7.64106 7.45115 7.78402 7.34744C7.92698 7.24373 8.02841 7.09641 8.07143 6.93L8.55857 5.07C8.60159 4.90359 8.70302 4.75627 8.84598 4.65256C8.98894 4.54885 9.1648 4.49501 9.34429 4.5H14.75C14.9295 4.49501 15.1053 4.54885 15.2483 4.65256C15.3913 4.75627 15.4927 4.90359 15.5357 5.07L15.9286 6.93C15.9716 7.09641 16.073 7.24373 16.216 7.34744C16.3589 7.45115 16.5348 7.50499 16.7143 7.5H20.6429C20.8512 7.5 21.0511 7.57902 21.1984 7.71967C21.3458 7.86032 21.4286 8.05109 21.4286 8.25V18.75ZM12 9C11.0676 9 10.1561 9.26392 9.38088 9.75839C8.60562 10.2529 8.00138 10.9557 7.64457 11.7779C7.28776 12.6002 7.1944 13.505 7.3763 14.3779C7.5582 15.2508 8.00719 16.0526 8.6665 16.682C9.3258 17.3113 10.1658 17.7399 11.0803 17.9135C11.9948 18.0872 12.9427 17.9981 13.8041 17.6575C14.6655 17.3169 15.4018 16.7401 15.9198 16.0001C16.4378 15.26 16.7143 14.39 16.7143 13.5C16.7143 12.3065 16.2176 11.1619 15.3335 10.318C14.4494 9.47411 13.2503 9 12 9ZM12 16.5C11.3784 16.5 10.7708 16.3241 10.2539 15.9944C9.73708 15.6648 9.33425 15.1962 9.09638 14.6481C8.8585 14.0999 8.79626 13.4967 8.91753 12.9147C9.0388 12.3328 9.33813 11.7982 9.77766 11.3787C10.2172 10.9591 10.7772 10.6734 11.3869 10.5576C11.9965 10.4419 12.6284 10.5013 13.2027 10.7284C13.777 10.9554 14.2678 11.3399 14.6132 11.8333C14.9585 12.3266 15.1429 12.9067 15.1429 13.5C15.1429 14.2956 14.8117 15.0587 14.2223 15.6213C13.6329 16.1839 12.8335 16.5 12 16.5ZM9.64286 6.75C9.64286 6.55109 9.72564 6.36032 9.87299 6.21967C10.0203 6.07902 10.2202 6 10.4286 6H13.5714C13.7798 6 13.9797 6.07902 14.127 6.21967C14.2744 6.36032 14.3571 6.55109 14.3571 6.75C14.3571 6.94891 14.2744 7.13968 14.127 7.28033C13.9797 7.42098 13.7798 7.5 13.5714 7.5H10.4286C10.2202 7.5 10.0203 7.42098 9.87299 7.28033C9.72564 7.13968 9.64286 6.94891 9.64286 6.75ZM19.8571 10.125C19.8571 10.3475 19.788 10.565 19.6585 10.75C19.529 10.935 19.3449 11.0792 19.1296 11.1644C18.9142 11.2495 18.6773 11.2718 18.4486 11.2284C18.22 11.185 18.01 11.0778 17.8452 10.9205C17.6804 10.7632 17.5681 10.5627 17.5226 10.3445C17.4772 10.1262 17.5005 9.90005 17.5897 9.69448C17.6789 9.48891 17.83 9.31321 18.0238 9.1896C18.2176 9.06598 18.4455 9 18.6786 9C18.9911 9 19.2909 9.11853 19.5119 9.3295C19.733 9.54048 19.8571 9.82663 19.8571 10.125Z" fill="black"/>
</svg>
