<svg width="40" height="40" viewBox="0 0 40 40" fill="none" xmlns="http://www.w3.org/2000/svg">
<path d="M31.0386 9H17.0423C15.4094 9 14.0809 10.3247 14.0809 11.953V15.4967H8.96138C7.32841 15.4966 6 16.8213 6 18.4496V24.5752C6 25.916 6.9007 27.051 8.13062 27.41V30.1716C8.13062 30.4952 8.31957 30.7892 8.61445 30.9243C8.72535 30.9752 8.8437 31 8.96116 31C9.15602 31 9.34873 30.9317 9.5023 30.8002L13.3258 27.5282H20.3349C21.9678 27.5282 23.2962 26.2035 23.2962 24.5752V22.7721H25.9657L30.1168 26.6056C30.2735 26.7503 30.476 26.8263 30.6814 26.8263C30.7937 26.8263 30.9069 26.8036 31.0138 26.7569C31.3164 26.6251 31.5119 26.3271 31.5119 25.9978V22.7344C32.9207 22.5078 34 21.2867 34 19.819V11.953C34 10.3247 32.6715 9 31.0386 9ZM21.6348 24.5752C21.6348 25.2899 21.0517 25.8714 20.335 25.8714H13.0183C12.8198 25.8714 12.628 25.9423 12.4773 26.0712L9.79209 28.3691V26.6998C9.79209 26.2423 9.42016 25.8714 8.96138 25.8714C8.24459 25.8714 7.66146 25.29 7.66146 24.5752V18.4496C7.66146 17.7349 8.24459 17.1533 8.96138 17.1533H14.0809V19.8191C14.0809 21.4473 15.4094 22.7721 17.0423 22.7721H21.6348V24.5752ZM32.3385 19.8191C32.3385 20.5338 31.7554 21.1153 31.0386 21.1153H30.6812C30.2224 21.1153 29.8505 21.4862 29.8505 21.9437V24.1016L26.8557 21.3359C26.7022 21.194 26.5006 21.1152 26.2913 21.1152H17.0423C16.3255 21.1152 15.7424 20.5337 15.7424 19.819V11.953C15.7424 11.2383 16.3255 10.6568 17.0423 10.6568H31.0386C31.7554 10.6568 32.3385 11.2383 32.3385 11.953V19.8191Z" fill="white"/>
<path d="M28.8611 13.5386H19.2198C18.7611 13.5386 18.3891 13.9095 18.3891 14.367C18.3891 14.8245 18.7611 15.1953 19.2198 15.1953H28.8611C29.3198 15.1953 29.6918 14.8245 29.6918 14.367C29.6918 13.9095 29.3198 13.5386 28.8611 13.5386Z" fill="white"/>
<path d="M28.8611 16.9626H19.2198C18.7611 16.9626 18.3891 17.3335 18.3891 17.7909C18.3891 18.2484 18.7611 18.6193 19.2198 18.6193H28.8611C29.3198 18.6193 29.6918 18.2484 29.6918 17.7909C29.6918 17.3335 29.3198 16.9626 28.8611 16.9626Z" fill="white"/>
</svg>
