<svg width="48" height="48" viewBox="0 0 48 48" fill="none" xmlns="http://www.w3.org/2000/svg">
<path d="M38.1925 10H20.1972C18.0978 10 16.3897 11.6859 16.3897 13.7584V18.2685H9.80749C7.70796 18.2684 6 19.9544 6 22.0268V29.823C6 31.5295 7.15805 32.9741 8.73937 33.4309V36.9457C8.73937 37.3575 8.9823 37.7317 9.36143 37.9037C9.50402 37.9684 9.65618 38 9.80721 38C10.0577 38 10.3055 37.913 10.503 37.7458L15.4189 33.5814H24.4306C26.53 33.5814 28.238 31.8954 28.238 29.823V27.5281H31.6702L37.0073 32.4072C37.2088 32.5913 37.4691 32.688 37.7332 32.688C37.8776 32.688 38.0231 32.6591 38.1606 32.5998C38.5496 32.432 38.8011 32.0527 38.8011 31.6336V27.4801C40.6123 27.1917 42 25.6377 42 23.7697V13.7584C42 11.686 40.292 10 38.1925 10ZM26.1019 29.823C26.1019 30.7326 25.3522 31.4727 24.4307 31.4727H15.0236C14.7683 31.4727 14.5217 31.5629 14.328 31.727L10.8755 34.6516V32.527C10.8755 31.9448 10.3973 31.4727 9.80749 31.4727C8.88591 31.4727 8.13616 30.7327 8.13616 29.823V22.0268C8.13616 21.1171 8.88591 20.377 9.80749 20.377H16.3897V23.7697C16.3897 25.8421 18.0978 27.5281 20.1972 27.5281H26.1019V29.823ZM39.8638 23.7697C39.8638 24.6794 39.1141 25.4195 38.1925 25.4195H37.7329C37.1431 25.4195 36.6649 25.8915 36.6649 26.4738V29.2202L32.8145 25.7002C32.6171 25.5197 32.3579 25.4194 32.0888 25.4194H20.1972C19.2757 25.4194 18.5259 24.6793 18.5259 23.7696V13.7584C18.5259 12.8488 19.2756 12.1086 20.1972 12.1086H38.1925C39.114 12.1086 39.8638 12.8487 39.8638 13.7584V23.7697Z" fill="#002041"/>
<path d="M35.3928 15.7764H22.9969C22.4071 15.7764 21.9289 16.2485 21.9289 16.8307C21.9289 17.4129 22.4071 17.885 22.9969 17.885H35.3928C35.9827 17.885 36.4609 17.4129 36.4609 16.8307C36.4609 16.2485 35.9827 15.7764 35.3928 15.7764Z" fill="#002041"/>
<path d="M35.3928 20.1342H22.9969C22.4071 20.1342 21.9289 20.6062 21.9289 21.1885C21.9289 21.7707 22.4071 22.2428 22.9969 22.2428H35.3928C35.9827 22.2428 36.4609 21.7707 36.4609 21.1885C36.4609 20.6062 35.9827 20.1342 35.3928 20.1342Z" fill="#002041"/>
</svg>
