<svg width="40" height="40" viewBox="0 0 40 40" fill="none" xmlns="http://www.w3.org/2000/svg">
<path fill-rule="evenodd" clip-rule="evenodd" d="M35.916 20.249L32.4021 10.0131C32.1265 9.18635 31.2102 8.78812 30.4314 9.11314L27.7813 10.2258C27.0706 10.5199 26.6887 11.3182 26.935 12.073C26.7087 12.0819 26.445 12.049 26.17 11.9247C26.1131 11.8988 26.0512 11.8711 25.9862 11.8414C25.4237 11.5845 24.5774 11.1983 23.693 10.9686C22.8654 10.754 21.8804 10.6404 20.9966 10.9957C20.5872 11.156 20.0903 11.4123 19.5534 11.7486C19.5453 11.7448 19.5371 11.7411 19.529 11.7366C19.2753 11.6136 18.9184 11.4533 18.5071 11.3062C17.7233 11.0254 16.5908 10.7344 15.5945 10.9976C14.9076 11.1787 14.0369 11.2349 13.3062 11.24C13.0468 11.2419 12.8118 11.2374 12.6168 11.2305C12.4643 10.8411 12.1512 10.5192 11.733 10.3684L9.0454 9.3984C8.23724 9.09421 7.36094 9.57259 7.12218 10.3772L4.06829 20.8126C3.82828 21.5825 4.24142 22.3947 4.98646 22.6636L7.67346 23.6336C7.92972 23.7301 8.19286 23.7478 8.44037 23.7011L8.43787 23.7081C7.98347 24.8971 8.59038 26.2476 9.72918 26.8036C9.73418 26.8062 9.73918 26.8087 9.74418 26.8106L9.88856 26.8768C10.2461 27.0523 10.628 27.1312 10.9999 27.1198C10.9392 28.1422 11.5411 29.1501 12.4949 29.6089L12.5062 29.6146L12.6524 29.6815C13.4069 30.0469 14.265 30.0014 14.9219 29.5931C15.1838 30.0538 15.5845 30.4407 16.0801 30.6792L16.0914 30.6849L16.2376 30.7518C17.427 31.3274 18.8759 30.8843 19.3828 29.6045L19.7647 28.6382L21.736 29.855C22.6817 30.4363 23.8505 30.2375 24.588 29.4322L24.5899 29.4297C25.0093 28.9677 25.2274 28.3776 25.253 27.7825C26.0906 28.0311 27.005 27.7522 27.5969 27.0384L27.5982 27.0371C27.9988 26.5518 28.1926 25.9472 28.1901 25.347C29.2945 25.4322 30.3564 24.6724 30.6939 23.4929L30.6952 23.4872C30.7489 23.2934 30.7814 23.0959 30.7939 22.8984C31.2058 23.3269 31.8546 23.4815 32.4284 23.241H32.4296L35.0785 22.1284C35.7998 21.8299 36.1823 21.0126 35.9142 20.2477L35.916 20.249ZM8.22473 22.2395C8.22098 22.2508 8.21223 22.2635 8.19536 22.2723C8.18723 22.2767 8.18098 22.2773 8.17786 22.278C8.17598 22.278 8.17536 22.278 8.17473 22.278L8.16161 22.2729L5.46835 21.301C5.43523 21.289 5.43023 21.2619 5.43523 21.2455C5.4371 21.2398 5.43835 21.2348 5.44023 21.2291L8.49537 10.7925C8.49912 10.7812 8.50787 10.7685 8.52475 10.7597C8.53287 10.7553 8.53912 10.7546 8.54225 10.754C8.54412 10.754 8.54475 10.754 8.54537 10.754L8.5585 10.7591L11.2518 11.7316C11.2849 11.7436 11.2899 11.7707 11.2849 11.7871C11.283 11.7928 11.2818 11.7979 11.2799 11.8035L8.22536 22.2401L8.22473 22.2395ZM10.5111 25.573C10.5048 25.5698 10.498 25.5667 10.4917 25.5635L10.3467 25.4972C9.81794 25.2347 9.6173 24.6471 9.77356 24.2325L11.2636 20.4774C11.2636 20.4774 11.2636 20.4774 11.2636 20.4768C11.4111 20.1095 11.8674 19.8924 12.3618 20.1373C12.3681 20.1404 12.3749 20.1436 12.3812 20.1467L12.5262 20.213C13.055 20.4755 13.255 21.0631 13.0993 21.4777L11.6093 25.2328C11.6093 25.2328 11.6093 25.2328 11.6093 25.2334C11.4618 25.6007 11.0055 25.8178 10.5111 25.573ZM13.2693 28.3744C13.2643 28.3719 13.2587 28.3694 13.2537 28.3669L13.1068 28.2993C12.5349 28.021 12.3137 27.3786 12.4924 26.9273L13.9294 23.3067C14.0906 22.899 14.5894 22.6648 15.1288 22.9286L15.9057 24.3758L14.4688 27.9964C14.3075 28.4041 13.8087 28.6382 13.2693 28.3744ZM15.1288 22.9286L15.2913 23.0037L15.1444 22.9362C15.1394 22.9337 15.1338 22.9312 15.1288 22.9286ZM16.8551 29.4454C16.8501 29.4429 16.8445 29.4404 16.8395 29.4379L16.6926 29.3703C16.1207 29.092 15.8995 28.4502 16.0782 27.9983L16.957 25.7724C17.1183 25.3653 17.6177 25.1306 18.1565 25.3944C18.1615 25.3969 18.1671 25.3994 18.1721 25.4019L18.319 25.4695C18.8909 25.7478 19.1121 26.3896 18.9334 26.8415L18.054 29.068C17.8927 29.4751 17.3939 29.7092 16.8545 29.4461L16.8551 29.4454ZM29.3182 23.094C29.097 23.8608 28.3751 24.0754 27.885 23.7554L27.2725 23.3597C27.205 23.3048 27.1338 23.2524 27.0588 23.2044L23.1517 20.6964L23.1498 20.6952C22.8161 20.4812 22.3742 20.5803 22.1616 20.9167C21.9491 21.2531 22.0466 21.6999 22.3792 21.9151L22.381 21.9164L26.4137 24.5228C26.8162 24.8983 26.8962 25.6291 26.4994 26.1113C26.215 26.4534 25.7949 26.5102 25.4681 26.3095L21.3066 23.7857C20.9672 23.5799 20.5272 23.691 20.3234 24.0331C20.1197 24.3751 20.2297 24.8201 20.5684 25.0258L23.3298 26.7014C23.8699 27.0308 24.0111 27.9251 23.5348 28.4514C23.2398 28.7727 22.8186 28.8263 22.481 28.6193L20.3009 27.2732C20.7153 26.0621 20.0778 24.7128 18.9284 24.1606L18.9171 24.1549L18.7709 24.088C18.3271 23.8734 17.8471 23.8002 17.3939 23.8595C17.3258 22.9539 16.7539 22.1051 15.9013 21.6948L15.8901 21.6892L15.7438 21.6223C15.3682 21.4405 14.9669 21.3604 14.5769 21.3761C14.6619 20.3702 14.085 19.3667 13.1431 18.9072C13.1381 18.9047 13.1331 18.9022 13.1281 18.9003L12.9837 18.834C12.2093 18.4541 11.3193 18.5267 10.6699 18.9912L12.5187 12.6751C12.7393 12.6833 13.0118 12.689 13.3169 12.6871C14.0825 12.6814 15.0957 12.6252 15.9576 12.3974C16.5101 12.2516 17.2889 12.4044 18.0296 12.67C18.0827 12.689 18.1346 12.7085 18.1852 12.7281C17.3333 13.4129 16.4783 14.251 15.7757 15.1938L15.7695 15.202C15.0901 16.143 15.1588 17.4627 15.8726 18.3317L15.8782 18.3399C15.8926 18.362 15.9082 18.3828 15.9251 18.403C16.5595 19.1679 17.5802 19.4058 18.4571 19.0265C18.8721 18.8486 19.2534 18.569 19.584 18.2976C19.7747 18.1411 19.9872 17.953 20.1834 17.7795C20.3078 17.6697 20.4259 17.5649 20.5284 17.4778C20.8285 17.2209 21.0722 17.0392 21.2797 16.9363C21.4797 16.8379 21.5622 16.8536 21.5941 16.8644C21.8135 16.9376 22.2385 17.1597 22.8398 17.5277C23.4205 17.883 24.1099 18.3393 24.8343 18.8359C26.2818 19.8293 27.8438 20.9678 28.9026 21.7485L28.9076 21.7523C29.2789 22.0211 29.4689 22.5531 29.3201 23.0934L29.3182 23.094ZM25.6381 17.64C24.9043 17.1364 24.1917 16.6649 23.5811 16.2907C22.9911 15.9297 22.436 15.6217 22.041 15.4905C21.5216 15.3182 21.0341 15.4469 20.6484 15.6375C20.2703 15.8243 19.9128 16.1077 19.6009 16.374C19.4528 16.5008 19.3215 16.617 19.1953 16.7293C19.0246 16.8808 18.8621 17.0247 18.6784 17.1755C18.3783 17.4223 18.1215 17.5983 17.8952 17.6949L17.8927 17.6962C17.6077 17.8199 17.2739 17.7555 17.0439 17.4993L17.0408 17.4948C17.0245 17.4696 17.0064 17.4462 16.987 17.4235C16.6701 17.0531 16.6389 16.456 16.9233 16.0578C17.7927 14.8915 18.9296 13.907 19.9303 13.2254C19.9734 13.2027 20.0147 13.1749 20.0534 13.1427C20.6153 12.7698 21.1278 12.4952 21.5166 12.3438L21.5247 12.3406C21.986 12.1544 22.6104 12.1809 23.3361 12.3696C24.0917 12.5659 24.823 12.8985 25.3955 13.1592C25.4606 13.1888 25.5237 13.2172 25.5843 13.245C26.2731 13.5561 26.9206 13.5542 27.3869 13.4785C27.3963 13.4772 27.4056 13.4753 27.415 13.4734L29.8951 20.6983C29.8464 20.6567 29.7964 20.6169 29.7439 20.579C28.682 19.7958 27.1056 18.6466 25.6381 17.64ZM34.5647 20.7652C34.5604 20.7747 34.5522 20.7848 34.5366 20.7911L31.8815 21.9056C31.8715 21.91 31.8571 21.9107 31.8402 21.9031C31.8321 21.8993 31.8265 21.8949 31.8234 21.8917C31.8209 21.8886 31.8184 21.8854 31.8171 21.8804L31.8146 21.8722L28.5688 12.4163C28.5582 12.3722 28.5432 12.3286 28.5238 12.2857L28.2988 11.63L28.2963 11.6237C28.2932 11.6148 28.2926 11.6085 28.2932 11.6047C28.2932 11.6003 28.2944 11.5953 28.2969 11.5902C28.3013 11.5808 28.3094 11.5707 28.3251 11.5644L30.9796 10.4498C30.9896 10.4454 31.0046 10.4441 31.0214 10.4517C31.0296 10.4555 31.0352 10.4599 31.0383 10.4637C31.0414 10.4669 31.0433 10.47 31.0446 10.4751L31.0471 10.4833L34.5629 20.7255L34.5654 20.7318C34.5685 20.7406 34.5691 20.7469 34.5685 20.7507C34.5685 20.7551 34.5672 20.7602 34.5647 20.7652Z" fill="white"/>
</svg>
