<svg width="48" height="48" viewBox="0 0 48 48" fill="none" xmlns="http://www.w3.org/2000/svg">
<path fill-rule="evenodd" clip-rule="evenodd" d="M40.9108 24.2716L37.1773 13.1052C36.8844 12.2033 35.9108 11.7689 35.0834 12.1234L32.2676 13.3372C31.5125 13.658 31.1068 14.529 31.3684 15.3524C31.128 15.362 30.8478 15.3262 30.5556 15.1906C30.4952 15.1624 30.4294 15.1321 30.3603 15.0997C29.7627 14.8195 28.8635 14.3982 27.9238 14.1476C27.0445 13.9135 25.9979 13.7895 25.0589 14.1772C24.6239 14.352 24.0959 14.6316 23.5255 14.9985C23.5168 14.9944 23.5082 14.9902 23.4996 14.9854C23.23 14.8512 22.8508 14.6763 22.4138 14.5159C21.581 14.2095 20.3777 13.8921 19.3191 14.1792C18.5893 14.3768 17.6642 14.4381 16.8879 14.4436C16.6123 14.4457 16.3626 14.4408 16.1554 14.4333C15.9933 14.0085 15.6606 13.6574 15.2163 13.4928L12.3607 12.4346C11.5021 12.1028 10.571 12.6246 10.3173 13.5024L7.07256 24.8864C6.81754 25.7264 7.25651 26.6124 8.04811 26.9057L10.903 27.9639C11.1753 28.0693 11.4549 28.0885 11.7179 28.0376L11.7152 28.0452C11.2324 29.3422 11.8773 30.8156 13.0873 31.4221C13.0926 31.4249 13.0979 31.4276 13.1032 31.4297L13.2566 31.502C13.6365 31.6934 14.0422 31.7795 14.4374 31.7671C14.3729 32.8824 15.0125 33.9819 16.0259 34.4824L16.0378 34.4886L16.1932 34.5616C16.9948 34.9602 17.9066 34.9107 18.6045 34.4652C18.8828 34.9678 19.3085 35.3898 19.8351 35.6501L19.8471 35.6563L20.0025 35.7293C21.2662 36.3571 22.8056 35.8738 23.3442 34.4776L23.7499 33.4235L25.8445 34.7509C26.8493 35.385 28.0911 35.1681 28.8748 34.2896L28.8768 34.2869C29.3224 33.7829 29.5541 33.1392 29.5814 32.49C30.4712 32.7612 31.4428 32.4569 32.0717 31.6783L32.073 31.6769C32.4987 31.1474 32.7046 30.4879 32.7019 29.8331C33.8754 29.9261 35.0037 29.0972 35.3623 27.8104L35.3636 27.8042C35.4207 27.5928 35.4553 27.3773 35.4685 27.1618C35.9062 27.6293 36.5955 27.798 37.2052 27.5357H37.2065L40.0209 26.3219C40.7873 25.9962 41.1937 25.1047 40.9088 24.2702L40.9108 24.2716ZM11.4888 26.4431C11.4848 26.4555 11.4755 26.4692 11.4576 26.4789C11.4489 26.4837 11.4423 26.4844 11.439 26.4851C11.437 26.4851 11.4363 26.4851 11.4357 26.4851L11.4217 26.4796L8.56013 25.4193C8.52493 25.4062 8.51962 25.3766 8.52493 25.3587C8.52692 25.3525 8.52825 25.347 8.53024 25.3408L11.7763 13.9555C11.7803 13.9431 11.7896 13.9293 11.8075 13.9197C11.8162 13.9148 11.8228 13.9142 11.8261 13.9135C11.8281 13.9135 11.8288 13.9135 11.8295 13.9135L11.8434 13.919L14.705 14.9799C14.7402 14.993 14.7455 15.0226 14.7402 15.0405C14.7382 15.0467 14.7369 15.0522 14.7349 15.0584L11.4894 26.4438L11.4888 26.4431ZM13.918 30.0796C13.9114 30.0762 13.9041 30.0727 13.8974 30.0693L13.7434 29.997C13.1816 29.7106 12.9684 29.0696 13.1344 28.6173L14.7176 24.5208C14.7176 24.5208 14.7176 24.5208 14.7176 24.5202C14.8743 24.1195 15.3591 23.8826 15.8844 24.1498C15.8911 24.1532 15.8984 24.1566 15.905 24.1601L16.0591 24.2324C16.6209 24.5188 16.8334 25.1597 16.668 25.6121L15.0848 29.7085C15.0848 29.7085 15.0848 29.7085 15.0848 29.7092C14.9281 30.1099 14.4433 30.3467 13.918 30.0796ZM16.8487 33.1358C16.8434 33.133 16.8374 33.1303 16.8321 33.1275L16.676 33.0538C16.0684 32.7502 15.8333 32.0493 16.0232 31.5571L17.55 27.6073C17.7213 27.1625 18.2513 26.9071 18.8244 27.1949L19.6498 28.7736L18.1231 32.7234C17.9517 33.1681 17.4218 33.4235 16.8487 33.1358ZM18.8244 27.1949L18.997 27.2768L18.841 27.2031C18.8357 27.2004 18.8297 27.1976 18.8244 27.1949ZM20.6586 34.3041C20.6533 34.3013 20.6473 34.2986 20.642 34.2958L20.4859 34.2222C19.8783 33.9186 19.6432 33.2184 19.8331 32.7254L20.7668 30.2972C20.9382 29.8531 21.4688 29.597 22.0412 29.8848C22.0465 29.8875 22.0525 29.8903 22.0578 29.893L22.2139 29.9667C22.8215 30.2703 23.0566 30.9705 22.8667 31.4634L21.9323 33.8924C21.761 34.3365 21.231 34.5919 20.6579 34.3048L20.6586 34.3041ZM33.9006 27.3753C33.6655 28.2118 32.8985 28.4459 32.3779 28.0968L31.727 27.6651C31.6553 27.6052 31.5796 27.5481 31.4999 27.4958L27.3487 24.7597L27.3467 24.7584C26.9921 24.525 26.5225 24.6331 26.2967 25C26.071 25.367 26.1746 25.8544 26.5279 26.0892L26.5298 26.0906L30.8146 28.934C31.2423 29.3436 31.3273 30.1409 30.9056 30.6669C30.6034 31.04 30.1571 31.102 29.8098 30.8831L25.3883 28.1298C25.0277 27.9054 24.5601 28.0266 24.3436 28.3997C24.1272 28.7729 24.244 29.2583 24.604 29.4827L27.5379 31.3106C28.1117 31.67 28.2618 32.6456 27.7558 33.2198C27.4423 33.5702 26.9947 33.6287 26.6361 33.4029L24.3197 31.9344C24.76 30.6132 24.0827 29.1412 22.8614 28.5388L22.8494 28.5326L22.694 28.4596C22.2225 28.2255 21.7125 28.1457 21.231 28.2104C21.1587 27.2224 20.551 26.2964 19.6452 25.8489L19.6332 25.8427L19.4778 25.7697C19.0787 25.5715 18.6524 25.484 18.238 25.5012C18.3283 24.4038 17.7153 23.3091 16.7145 22.8079C16.7092 22.8052 16.7039 22.8024 16.6986 22.8003L16.5452 22.728C15.7224 22.3136 14.7767 22.3928 14.0867 22.8995L16.0511 16.0092C16.2855 16.0181 16.5751 16.0243 16.8992 16.0223C17.7127 16.0161 18.7892 15.9548 19.705 15.7063C20.292 15.5472 21.1195 15.7138 21.9064 16.0037C21.9629 16.0243 22.018 16.0457 22.0718 16.067C21.1666 16.814 20.2581 17.7283 19.5117 18.7569L19.5051 18.7659C18.7832 19.7924 18.8562 21.232 19.6146 22.18L19.6206 22.189C19.6359 22.2131 19.6525 22.2358 19.6704 22.2578C20.3445 23.0923 21.4289 23.3518 22.3607 22.938C22.8016 22.7439 23.2067 22.4389 23.558 22.1428C23.7606 21.9721 23.9864 21.7669 24.1949 21.5776C24.327 21.4578 24.4526 21.3435 24.5615 21.2485C24.8802 20.9683 25.1392 20.77 25.3597 20.6578C25.5722 20.5504 25.6599 20.5676 25.6938 20.5793C25.9268 20.6592 26.3784 20.9015 27.0173 21.3029C27.6342 21.6905 28.3667 22.1883 29.1364 22.7301C30.6745 23.8138 32.334 25.0558 33.459 25.9074L33.4643 25.9116C33.8588 26.2049 34.0607 26.7852 33.9026 27.3746L33.9006 27.3753ZM29.9904 21.4254C29.2108 20.876 28.4537 20.3617 27.8049 19.9535C27.178 19.5597 26.5883 19.2237 26.1686 19.0805C25.6167 18.8925 25.0987 19.033 24.689 19.2409C24.2872 19.4447 23.9073 19.7538 23.576 20.0444C23.4186 20.1827 23.2791 20.3094 23.145 20.432C22.9637 20.5972 22.791 20.7542 22.5958 20.9187C22.277 21.1879 22.004 21.38 21.7636 21.4853L21.761 21.4867C21.4582 21.6217 21.1035 21.5514 20.8591 21.2719L20.8558 21.2671C20.8386 21.2396 20.8193 21.2141 20.7987 21.1893C20.462 20.7852 20.4288 20.1339 20.731 19.6994C21.6547 18.4271 22.8627 17.3531 23.9259 16.6095C23.9718 16.5848 24.0156 16.5545 24.0568 16.5194C24.6538 16.1125 25.1983 15.813 25.6114 15.6477L25.62 15.6443C26.1101 15.4412 26.7736 15.4701 27.5446 15.676C28.3475 15.8901 29.1245 16.2529 29.7328 16.5373C29.8018 16.5696 29.8689 16.6006 29.9333 16.6309C30.6652 16.9703 31.3532 16.9682 31.8486 16.8856C31.8585 16.8842 31.8685 16.8822 31.8785 16.8801L34.5136 24.7618C34.4618 24.7164 34.4087 24.673 34.3529 24.6317C33.2246 23.7773 31.5497 22.5236 29.9904 21.4254ZM39.475 24.8348C39.4704 24.8451 39.4617 24.8561 39.4451 24.863L36.6241 26.0789C36.6134 26.0837 36.5982 26.0844 36.5802 26.0761C36.5716 26.072 36.5656 26.0672 36.5623 26.0637C36.5597 26.0603 36.557 26.0568 36.5557 26.0513L36.553 26.0424L33.1044 15.7269C33.0931 15.6787 33.0771 15.6312 33.0566 15.5844L32.8175 14.8691L32.8148 14.8622C32.8115 14.8526 32.8108 14.8457 32.8115 14.8415C32.8115 14.8367 32.8128 14.8312 32.8155 14.8257C32.8201 14.8154 32.8288 14.8044 32.8454 14.7975L35.6658 13.5816C35.6764 13.5768 35.6924 13.5754 35.7103 13.5837C35.7189 13.5878 35.7249 13.5926 35.7282 13.5968C35.7315 13.6002 35.7335 13.6037 35.7349 13.6092L35.7375 13.6181L39.473 24.7914L39.4757 24.7983C39.479 24.8079 39.4797 24.8148 39.479 24.819C39.479 24.8238 39.4777 24.8293 39.475 24.8348Z" fill="#002041"/>
</svg>
