<svg width="32" height="32" viewBox="0 0 32 32" fill="none" xmlns="http://www.w3.org/2000/svg">
<circle cx="15.657" cy="15.657" r="13.657" fill="white"/>
<path d="M11.7914 21.6294V12.4392H8.73559V21.6294H11.7917H11.7914ZM10.264 11.1847C11.3295 11.1847 11.9927 10.4789 11.9927 9.597C11.9727 8.69506 11.3295 8.00907 10.2843 8.00907C9.23839 8.00907 8.55535 8.69506 8.55535 9.597C8.55535 10.4789 9.21837 11.1847 10.244 11.1847H10.2638H10.264ZM13.4827 21.6294H16.5383V16.4978C16.5383 16.2234 16.5583 15.9484 16.6389 15.7525C16.8598 15.2035 17.3626 14.6352 18.2069 14.6352C19.3124 14.6352 19.7548 15.4779 19.7548 16.7134V21.6294H22.8104V16.36C22.8104 13.5373 21.303 12.2238 19.2926 12.2238C17.6443 12.2238 16.9204 13.1447 16.5182 13.7719H16.5385V12.4395H13.483C13.5228 13.3016 13.4827 21.6296 13.4827 21.6296V21.6294Z" fill="#006699"/>
</svg>
