<svg width="48" height="48" viewBox="0 0 48 48" fill="none" xmlns="http://www.w3.org/2000/svg">
<rect width="48" height="48" rx="8" fill="#B6D3ED"/>
<path d="M22.625 35H18.5C15.4673 35 13 32.5327 13 29.5V18.5C13 15.4673 15.4673 13 18.5 13H22.625C23.3844 13 24 13.6156 24 14.375C24 15.1344 23.3844 15.75 22.625 15.75H18.5C16.9836 15.75 15.75 16.9836 15.75 18.5V29.5C15.75 31.0164 16.9836 32.25 18.5 32.25H22.625C23.3844 32.25 24 32.8656 24 33.625C24 34.3844 23.3844 35 22.625 35Z" fill="white"/>
<path d="M34.6702 24.893C34.676 24.8862 34.6819 24.8796 34.6876 24.8727C34.6973 24.8609 34.7065 24.8489 34.7157 24.8369C34.72 24.8313 34.7244 24.8258 34.7287 24.8201C34.7382 24.8074 34.7472 24.7944 34.7562 24.7815C34.7599 24.7761 34.7637 24.7709 34.7673 24.7655C34.7761 24.7524 34.7845 24.7391 34.7928 24.7257C34.7963 24.7201 34.7999 24.7145 34.8033 24.7089C34.8112 24.6958 34.8187 24.6826 34.8261 24.6694C34.8297 24.663 34.8333 24.6566 34.8368 24.6501C34.8435 24.6377 34.8498 24.6252 34.8561 24.6126C34.8599 24.6048 34.8639 24.5971 34.8676 24.5892C34.873 24.5778 34.8781 24.5663 34.8832 24.5548C34.8873 24.5454 34.8915 24.5361 34.8954 24.5267C34.8996 24.5164 34.9036 24.5061 34.9075 24.4958C34.9118 24.4848 34.916 24.4739 34.92 24.4628C34.9232 24.4538 34.9261 24.4447 34.9291 24.4357C34.9333 24.4232 34.9375 24.4107 34.9413 24.3981C34.9437 24.39 34.9459 24.3819 34.9482 24.3739C34.952 24.3602 34.9558 24.3466 34.9593 24.3328C34.9611 24.3253 34.9627 24.3178 34.9645 24.3103C34.9678 24.296 34.971 24.2817 34.9739 24.2672C34.9754 24.2596 34.9766 24.2519 34.978 24.2443C34.9805 24.2301 34.9831 24.2158 34.9852 24.2014C34.9865 24.1926 34.9875 24.1838 34.9886 24.175C34.9902 24.1617 34.9921 24.1485 34.9933 24.1351C34.9945 24.1234 34.9951 24.1118 34.996 24.1001C34.9968 24.0894 34.9978 24.0788 34.9983 24.0681C34.9994 24.0455 35 24.0228 35 24.0001C35 23.9774 34.9994 23.9548 34.9983 23.9322C34.9978 23.9214 34.9967 23.9108 34.996 23.9C34.9951 23.8884 34.9945 23.8768 34.9933 23.8652C34.992 23.8517 34.9902 23.8384 34.9885 23.8251C34.9874 23.8164 34.9864 23.8076 34.9851 23.7989C34.983 23.7844 34.9804 23.7701 34.9778 23.7558C34.9765 23.7482 34.9753 23.7406 34.9738 23.7331C34.9709 23.7185 34.9676 23.7041 34.9643 23.6898C34.9626 23.6824 34.961 23.6749 34.9592 23.6676C34.9557 23.6536 34.9519 23.6398 34.948 23.626C34.9457 23.6181 34.9436 23.6102 34.9412 23.6023C34.9374 23.5895 34.9331 23.5768 34.9289 23.5642C34.926 23.5553 34.9231 23.5464 34.92 23.5376C34.9159 23.5263 34.9116 23.5152 34.9073 23.504C34.9034 23.4939 34.8995 23.4838 34.8953 23.4737C34.8913 23.4641 34.8871 23.4546 34.8829 23.445C34.8779 23.4337 34.8729 23.4224 34.8676 23.4112C34.8637 23.4031 34.8597 23.3951 34.8557 23.3871C34.8495 23.3748 34.8433 23.3625 34.8368 23.3503C34.8332 23.3435 34.8293 23.3369 34.8255 23.3302C34.8183 23.3172 34.811 23.3043 34.8033 23.2916C34.7997 23.2855 34.7959 23.2796 34.7921 23.2736C34.784 23.2606 34.7759 23.2477 34.7673 23.2349C34.7634 23.2291 34.7592 23.2234 34.7552 23.2176C34.7465 23.2051 34.7378 23.1926 34.7287 23.1803C34.7241 23.174 34.7191 23.1679 34.7143 23.1617C34.7055 23.1503 34.6968 23.1389 34.6876 23.1278C34.681 23.1198 34.6742 23.1121 34.6674 23.1042C34.6596 23.0951 34.6519 23.0859 34.6438 23.077C34.6313 23.0632 34.6183 23.0497 34.6052 23.0363C34.6025 23.0335 34.6 23.0307 34.5972 23.0279L29.0972 17.5279C28.5601 16.9909 27.6896 16.9909 27.1526 17.5279C26.6156 18.0649 26.6156 18.9355 27.1526 19.4725L30.3053 22.6252H20.7917C20.0323 22.6252 19.4167 23.2408 19.4167 24.0002C19.4167 24.7596 20.0323 25.3752 20.7917 25.3752H30.3055L27.1527 28.5279C26.6158 29.0649 26.6158 29.9355 27.1527 30.4725C27.4212 30.741 27.7731 30.8752 28.125 30.8752C28.4769 30.8752 28.8288 30.741 29.0973 30.4725L34.5973 24.9725C34.6033 24.9665 34.6088 24.9604 34.6147 24.9543C34.6244 24.9442 34.6343 24.9341 34.6437 24.9237C34.6528 24.9137 34.6614 24.9032 34.6702 24.893Z" fill="white"/>
</svg>
