<svg width="48" height="48" viewBox="0 0 48 48" fill="none" xmlns="http://www.w3.org/2000/svg">
<rect width="48" height="48" rx="8" fill="#28D8CB"/>
<path d="M35.1951 24.0003C35.1958 23.631 35.276 23.2665 35.4299 22.9325C35.5837 22.5986 35.8076 22.3034 36.0854 22.068C36.4838 21.7335 36.7715 21.2812 36.9091 20.7729C37.0468 20.2647 37.0277 19.7253 36.8544 19.2286C36.3178 17.6778 35.5075 16.241 34.4638 14.9898C34.1299 14.5879 33.6828 14.3015 33.1838 14.1697C32.6848 14.0379 32.1582 14.0672 31.676 14.2536C31.3379 14.383 30.976 14.4341 30.6162 14.4034C30.2565 14.3726 29.9079 14.2607 29.5954 14.0757C29.2829 13.8907 29.0143 13.6372 28.8089 13.3334C28.6035 13.0295 28.4663 12.6829 28.4072 12.3184C28.318 11.7935 28.0732 11.3094 27.706 10.9317C27.3389 10.554 26.8672 10.301 26.3548 10.2071C24.7962 9.92848 23.202 9.93102 21.6442 10.2146C21.1307 10.3038 20.6571 10.5546 20.2893 10.9321C19.9216 11.3095 19.6778 11.795 19.592 12.3208C19.5327 12.6852 19.3954 13.0316 19.1899 13.3353C18.9843 13.6389 18.7157 13.8922 18.4032 14.0771C18.0908 14.2619 17.7422 14.3736 17.3826 14.4043C17.0229 14.4349 16.6611 14.3837 16.3231 14.2544C15.8349 14.0704 15.3031 14.045 14.8003 14.1818C14.2975 14.3185 13.8481 14.6106 13.5134 15.0183C12.4965 16.2584 11.6982 17.6703 11.1546 19.1908C10.9766 19.6916 10.954 20.2365 11.0898 20.751C11.2256 21.2655 11.5132 21.7246 11.9133 22.0656C12.192 22.3005 12.4165 22.5957 12.5707 22.9299C12.7248 23.2642 12.8048 23.6292 12.8049 23.9988C12.8051 24.3684 12.7253 24.7334 12.5714 25.0677C12.4174 25.4021 12.1931 25.6974 11.9146 25.9326C11.5162 26.2671 11.2285 26.7194 11.0909 27.2276C10.9532 27.7359 10.9723 28.2752 11.1456 28.7719C11.6822 30.3228 12.4925 31.7596 13.5362 33.0107C13.8702 33.4125 14.3173 33.6988 14.8162 33.8306C15.3152 33.9623 15.8418 33.9331 16.324 33.7469C16.6621 33.6176 17.0241 33.5664 17.3838 33.5972C17.7435 33.6279 18.0922 33.7398 18.4046 33.9248C18.7171 34.1099 18.9857 34.3634 19.1911 34.6672C19.3966 34.9711 19.5337 35.3177 19.5928 35.6823C19.6774 36.2092 19.9207 36.6958 20.2887 37.0744C20.6566 37.4529 21.1309 37.7043 21.6452 37.7936C23.2039 38.0713 24.798 38.0688 26.3558 37.7861C26.8692 37.6968 27.3427 37.4459 27.7104 37.0685C28.078 36.691 28.3217 36.2056 28.4075 35.6799C28.4668 35.3155 28.6041 34.969 28.8096 34.6654C29.0152 34.3617 29.2838 34.1084 29.5963 33.9236C29.9087 33.7388 30.2573 33.627 30.6169 33.5964C30.9766 33.5657 31.3384 33.6169 31.6764 33.7463C32.1639 33.9352 32.6969 33.963 33.2006 33.8259C33.7044 33.6887 34.1535 33.3934 34.4848 32.9816C35.5032 31.7425 36.3019 30.3307 36.8449 28.8099C37.0229 28.3087 37.0453 27.7635 36.9092 27.2488C36.7731 26.7341 36.4851 26.2749 36.0846 25.934C35.8068 25.6982 35.5831 25.4027 35.4294 25.0685C35.2757 24.7343 35.1957 24.3696 35.1951 24.0003ZM32.5324 31.3551C31.8525 31.0985 31.1257 30.998 30.4036 31.0607C29.6815 31.1234 28.9817 31.3479 28.3537 31.7181C27.7219 32.0969 27.1777 32.6112 26.7586 33.2257C26.3394 33.8402 26.0553 34.5404 25.9256 35.278C24.6414 35.5159 23.3249 35.505 22.0447 35.2457C21.8502 34.0704 21.2554 33.0037 20.3657 32.2345C19.4761 31.4654 18.3491 31.0436 17.1846 31.0439C16.5872 31.0455 15.9946 31.1528 15.433 31.3611C15.0104 30.8529 14.633 30.307 14.3055 29.7299C13.9732 29.1483 13.707 28.5296 13.5123 27.886C14.0695 27.4117 14.5178 26.8177 14.8256 26.1462C15.1333 25.4747 15.2929 24.742 15.2931 24.0003C15.2892 23.25 15.1258 22.5096 14.8144 21.8305C14.5029 21.1513 14.0508 20.5497 13.4894 20.0673C13.9354 18.8107 14.6063 17.6502 15.468 16.6454C16.148 16.9015 16.8747 17.0017 17.5967 16.939C18.3187 16.8762 19.0184 16.6521 19.6466 16.2824C20.2784 15.9037 20.8226 15.3893 21.2418 14.7748C21.6609 14.1603 21.9451 13.4601 22.0748 12.7225C23.3589 12.4844 24.6752 12.4945 25.9557 12.7523C26.0771 13.4851 26.355 14.1814 26.7695 14.7916C27.184 15.4018 27.725 15.9108 28.3537 16.2824C28.988 16.6535 29.694 16.8777 30.422 16.9393C31.1501 17.0009 31.8825 16.8984 32.5676 16.6389C32.9902 17.1472 33.3675 17.6933 33.6948 18.2706C34.0272 18.8522 34.2933 19.4709 34.488 20.1145C33.9304 20.589 33.4817 21.1835 33.174 21.8556C32.8662 22.5277 32.7069 23.261 32.7073 24.0033C32.7078 24.7456 32.868 25.4786 33.1766 26.1503C33.4853 26.8221 33.9347 27.4159 34.4929 27.8897L34.5112 27.9332C34.0655 29.19 33.3944 30.3505 32.5324 31.3551Z" fill="white"/>
<path d="M30.109 20.5909C29.9057 20.5471 29.695 20.5556 29.4957 20.6157C29.2964 20.6758 29.1148 20.7856 28.9672 20.9353L26.8526 23.0998C26.6261 23.34 26.5007 23.6616 26.5035 23.9954C26.5064 24.3293 26.6372 24.6486 26.8678 24.8847C27.0984 25.1208 27.4104 25.2547 27.7365 25.2576C28.0627 25.2605 28.3769 25.1321 28.6115 24.9002L28.9473 24.5583C28.8115 25.8045 28.2319 26.9558 27.3194 27.7924C26.4068 28.6289 25.2252 29.092 24.0002 29.0933C23.4287 29.0981 22.8611 28.9965 22.3251 28.7936C22.1722 28.7345 22.0095 28.7068 21.8463 28.712C21.683 28.7173 21.5223 28.7554 21.3734 28.8242C21.2245 28.893 21.0903 28.9912 20.9785 29.1131C20.8667 29.235 20.7794 29.3782 20.7216 29.5347C20.6639 29.6911 20.6368 29.8577 20.642 30.0248C20.6471 30.1919 20.6843 30.3564 20.7516 30.5088C20.8188 30.6612 20.9147 30.7986 21.0338 30.9131C21.1529 31.0275 21.2928 31.1169 21.4456 31.176C22.2626 31.4878 23.1282 31.645 24.0002 31.6398C25.9789 31.6376 27.8759 30.832 29.2751 29.3998C30.6743 27.9676 31.4613 26.0257 31.4634 24.0003C31.4685 23.1077 31.3149 22.2217 31.0103 21.3854C30.9369 21.1864 30.816 21.0094 30.6585 20.8706C30.5011 20.7318 30.3121 20.6356 30.109 20.5909Z" fill="white"/>
<path d="M21.148 23.1001C21.0325 22.9818 20.8954 22.888 20.7445 22.8239C20.5936 22.7599 20.4319 22.727 20.2686 22.727C20.1052 22.727 19.9435 22.7599 19.7926 22.8239C19.6417 22.888 19.5046 22.9818 19.3891 23.1001L19.0533 23.4419C19.1892 22.1958 19.7688 21.0446 20.6813 20.2082C21.5938 19.3717 22.7753 18.9086 24.0002 18.9072C24.5717 18.9024 25.1393 19.004 25.6753 19.207C25.9839 19.3263 26.3263 19.3153 26.627 19.1763C26.9277 19.0373 27.1621 18.7818 27.2787 18.4659C27.3953 18.1499 27.3846 17.7995 27.2488 17.4917C27.113 17.1839 26.8634 16.9439 26.5547 16.8246C25.7377 16.5127 24.8721 16.3555 24.0002 16.3607C22.0215 16.3629 20.1244 17.1685 18.7253 18.6007C17.3261 20.033 16.5391 21.9748 16.5369 24.0003C16.5319 24.8928 16.6854 25.7789 16.9901 26.6152C17.0635 26.8142 17.1844 26.9911 17.3419 27.1299C17.4993 27.2687 17.6883 27.3649 17.8914 27.4097C17.9777 27.4284 18.0657 27.4379 18.154 27.4381C18.3173 27.4381 18.4791 27.4051 18.63 27.3411C18.7809 27.2771 18.9179 27.1833 19.0334 27.065L21.148 24.9005C21.2635 24.7823 21.3552 24.642 21.4177 24.4875C21.4803 24.333 21.5125 24.1675 21.5125 24.0003C21.5125 23.8331 21.4803 23.6675 21.4177 23.513C21.3552 23.3586 21.2635 23.2183 21.148 23.1001Z" fill="white"/>
</svg>
