<svg width="48" height="48" viewBox="0 0 48 48" fill="none" xmlns="http://www.w3.org/2000/svg">
<rect width="48" height="48" rx="8" fill="#28D8CB"/>
<path d="M25.5551 26.437H23.3663L23.7603 24.4651C23.8653 23.9631 23.8546 23.4437 23.7288 22.9465C23.6031 22.4493 23.3657 21.9872 23.0348 21.5955C22.707 21.1764 22.2668 20.8592 21.7657 20.6807C21.2645 20.5022 20.7229 20.4697 20.204 20.5872C19.8541 20.727 19.5593 20.9772 19.3646 21.2999C19.1698 21.6225 19.0857 21.9998 19.125 22.3746C19.125 24.2709 16.9971 25.9812 15.55 26.8668C15.2873 26.3967 14.8758 26.0272 14.3802 25.8164C13.8846 25.6057 13.333 25.5655 12.8122 25.7024C12.2913 25.8392 11.8306 26.1452 11.5026 26.5723C11.1746 26.9994 10.9978 27.5234 11 28.0619V34.5617C10.9984 35.0925 11.1706 35.6093 11.4903 36.0331C11.81 36.4568 12.2596 36.7643 12.7705 36.9086C13.2814 37.0528 13.8255 37.0258 14.3196 36.8318C14.8137 36.6378 15.2307 36.2873 15.507 35.834L17.0507 36.8626C17.1839 36.9511 17.3401 36.9985 17.5 36.9991H23.2273C24.0938 36.9977 24.9359 36.712 25.6246 36.1861C26.3132 35.6601 26.8102 34.9228 27.0396 34.0872L28.1868 29.8827C28.2973 29.478 28.3129 29.0533 28.2325 28.6416C28.1521 28.2299 27.9778 27.8423 27.7232 27.509C27.4686 27.1756 27.1405 26.9055 26.7645 26.7195C26.3885 26.5336 25.9746 26.4369 25.5551 26.437ZM14.25 34.5617C14.25 34.7772 14.1644 34.9838 14.012 35.1362C13.8597 35.2886 13.653 35.3742 13.4375 35.3742C13.222 35.3742 13.0154 35.2886 12.863 35.1362C12.7106 34.9838 12.625 34.7772 12.625 34.5617V28.0619C12.625 27.8464 12.7106 27.6398 12.863 27.4874C13.0154 27.335 13.222 27.2494 13.4375 27.2494C13.653 27.2494 13.8597 27.335 14.012 27.4874C14.1644 27.6398 14.25 27.8464 14.25 28.0619V34.5617ZM26.6187 29.4545L25.4723 33.6599C25.337 34.1518 25.0443 34.5858 24.6388 34.8954C24.2333 35.2051 23.7375 35.3732 23.2273 35.3742H17.7438L15.875 34.127V28.5494C17.1701 27.8336 20.75 25.5693 20.75 22.3746C20.75 22.1934 20.7784 22.1179 20.7654 22.1097C20.9659 22.1211 21.1617 22.1751 21.3396 22.2681C21.5176 22.3611 21.6736 22.4911 21.7973 22.6492C21.9672 22.8552 22.0887 23.0966 22.1527 23.3558C22.2167 23.615 22.2216 23.8853 22.167 24.1466L21.5788 27.087C21.5547 27.205 21.5571 27.327 21.586 27.4439C21.6148 27.5609 21.6693 27.67 21.7455 27.7634C21.8218 27.8567 21.9178 27.9319 22.0266 27.9835C22.1355 28.0352 22.2545 28.0619 22.375 28.0619H25.5551C25.7246 28.0619 25.8919 28.1011 26.0438 28.1762C26.1958 28.2514 26.3283 28.3605 26.4312 28.4953C26.5341 28.63 26.6045 28.7866 26.6371 28.953C26.6696 29.1193 26.6633 29.291 26.6187 29.4545Z" fill="white"/>
<path d="M34.1067 11H18.7683C18.0012 11.0006 17.2656 11.3057 16.7232 11.8481C16.1807 12.3906 15.8757 13.1261 15.875 13.8932V23.1871C15.875 23.4026 15.9606 23.6092 16.113 23.7616C16.2654 23.914 16.472 23.9996 16.6875 23.9996C16.903 23.9996 17.1097 23.914 17.262 23.7616C17.4144 23.6092 17.5 23.4026 17.5 23.1871V13.8932C17.5002 13.5569 17.6339 13.2344 17.8717 12.9966C18.1095 12.7588 18.432 12.6252 18.7683 12.6249H34.1067C34.443 12.6252 34.7655 12.7588 35.0033 12.9966C35.2411 13.2344 35.3748 13.5569 35.375 13.8932V26.324L31.8325 23.3723C31.6861 23.2518 31.5021 23.1863 31.3125 23.1871H25.625C25.4095 23.1871 25.2029 23.2727 25.0505 23.4251C24.8981 23.5774 24.8125 23.7841 24.8125 23.9996C24.8125 24.215 24.8981 24.4217 25.0505 24.5741C25.2029 24.7264 25.4095 24.812 25.625 24.812H31.0184L35.6675 28.6859C35.7861 28.7847 35.9305 28.8477 36.0836 28.8674C36.2367 28.8872 36.3923 28.8629 36.5321 28.7974C36.6719 28.7319 36.7902 28.628 36.873 28.4977C36.9559 28.3675 36.9999 28.2163 37 28.0619V13.8932C36.9994 13.1261 36.6943 12.3906 36.1519 11.8481C35.6094 11.3057 34.8738 11.0006 34.1067 11Z" fill="white"/>
<path d="M32.125 15.0624H20.75C20.5345 15.0624 20.3279 15.148 20.1755 15.3003C20.0231 15.4527 19.9375 15.6594 19.9375 15.8748C19.9375 16.0903 20.0231 16.297 20.1755 16.4493C20.3279 16.6017 20.5345 16.6873 20.75 16.6873H32.125C32.3405 16.6873 32.5472 16.6017 32.6995 16.4493C32.8519 16.297 32.9375 16.0903 32.9375 15.8748C32.9375 15.6594 32.8519 15.4527 32.6995 15.3003C32.5472 15.148 32.3405 15.0624 32.125 15.0624Z" fill="white"/>
<path d="M32.125 18.3123H26.4375C26.222 18.3123 26.0154 18.3979 25.863 18.5502C25.7106 18.7026 25.625 18.9092 25.625 19.1247C25.625 19.3402 25.7106 19.5469 25.863 19.6992C26.0154 19.8516 26.222 19.9372 26.4375 19.9372H32.125C32.3405 19.9372 32.5472 19.8516 32.6995 19.6992C32.8519 19.5469 32.9375 19.3402 32.9375 19.1247C32.9375 18.9092 32.8519 18.7026 32.6995 18.5502C32.5472 18.3979 32.3405 18.3123 32.125 18.3123Z" fill="white"/>
</svg>
