<svg width="48" height="48" viewBox="0 0 48 48" fill="none" xmlns="http://www.w3.org/2000/svg">
<rect width="48" height="48" rx="8" fill="#B6D3ED"/>
<path d="M30.6541 27.5324C30.0093 27.5324 29.4882 28.0624 29.4882 28.7182V32.4427C29.4882 33.0973 28.9659 33.6284 28.3223 33.6284H15.4976C14.854 33.6284 14.3318 33.0972 14.3318 32.4427V17.0276C14.3318 16.3731 14.8541 15.8419 15.4976 15.8419H22.2714C22.9161 15.8419 23.4372 15.3118 23.4372 14.6561C23.4372 14.0004 22.9161 13.4704 22.2714 13.4704H15.4976C13.5693 13.4703 12 15.0664 12 17.0276V32.4427C12 34.404 13.5693 36 15.4976 36H28.3222C30.2506 36 31.8199 34.4052 31.8199 32.4427V28.7182C31.8199 28.0624 31.2988 27.5324 30.6541 27.5324Z" fill="white"/>
<path d="M34.6962 13.3197C33.8497 12.4588 32.7445 12.0248 31.6311 12.0011C30.4593 11.975 29.2806 12.4066 28.3946 13.309L20.5016 21.3367C19.3497 22.513 18.7154 24.0735 18.7154 25.7312V28.3873C18.7154 29.043 19.2366 29.573 19.8813 29.573H22.4928C24.1227 29.573 25.657 28.928 26.8147 27.7552L34.6972 19.7382C36.4344 17.9703 36.4344 15.0889 34.6962 13.3197ZM25.1674 26.0775C24.4527 26.802 23.5014 27.2016 22.4929 27.2016H21.0472V25.7312C21.0472 24.7055 21.4401 23.7379 22.1513 23.0122L27.3546 17.7201L30.3695 20.7865L25.1674 26.0775ZM33.0476 18.0628L32.0181 19.1099L29.0031 16.0435L30.0326 14.9964C30.865 14.1498 32.2174 14.1522 33.0475 14.9964C33.8777 15.8418 33.8777 17.2173 33.0476 18.0628Z" fill="white"/>
</svg>
