<svg width="48" height="48" viewBox="0 0 48 48" fill="none" xmlns="http://www.w3.org/2000/svg">
<rect width="48" height="48" rx="8" fill="#28D8CB"/>
<path d="M30.6056 27.2729C29.9144 27.2745 29.2334 27.4384 28.6182 27.7513C28.003 28.0641 27.4711 28.5169 27.0658 29.0729L21.5563 25.4261C21.9035 24.5068 21.9035 23.4938 21.5563 22.5745L27.0658 18.9277C27.6842 19.7602 28.5813 20.3464 29.596 20.581C30.6106 20.8157 31.6762 20.6834 32.6014 20.2079C33.5266 19.7324 34.2507 18.9449 34.6437 17.9868C35.0366 17.0287 35.0726 15.963 34.7452 14.9809C34.4177 13.9989 33.7484 13.165 32.8573 12.629C31.9663 12.093 30.912 11.8901 29.8838 12.0568C28.8556 12.2234 27.921 12.7487 27.2478 13.5382C26.5746 14.3277 26.2071 15.3296 26.2111 16.3641C26.2182 16.523 26.2344 16.6815 26.2594 16.8386L20.3368 20.7593C19.7057 20.1943 18.9231 19.8231 18.0838 19.6908C17.2446 19.5584 16.3847 19.6705 15.6082 20.0135C14.8318 20.3564 14.1722 20.9156 13.7093 21.6232C13.2464 22.3308 13 23.1565 13 24.0003C13 24.8441 13.2464 25.6698 13.7093 26.3774C14.1722 27.085 14.8318 27.6441 15.6082 27.9871C16.3847 28.3301 17.2446 28.4422 18.0838 28.3098C18.9231 28.1774 19.7057 27.8063 20.3368 27.2413L26.2594 31.1619C26.2344 31.3191 26.2182 31.4775 26.2111 31.6365C26.2111 32.4995 26.4688 33.3431 26.9517 34.0607C27.4346 34.7783 28.1209 35.3376 28.9239 35.6678C29.7268 35.9981 30.6104 36.0845 31.4629 35.9162C32.3153 35.7478 33.0983 35.3322 33.7129 34.7219C34.3275 34.1117 34.746 33.3342 34.9156 32.4877C35.0851 31.6413 34.9981 30.7639 34.6655 29.9666C34.3329 29.1693 33.7696 28.4878 33.047 28.0083C32.3243 27.5288 31.4747 27.2729 30.6056 27.2729ZM30.6056 14.1823C31.0401 14.1823 31.4649 14.3103 31.8263 14.55C32.1876 14.7897 32.4692 15.1305 32.6355 15.5292C32.8018 15.9278 32.8453 16.3665 32.7606 16.7897C32.6758 17.2129 32.4665 17.6017 32.1592 17.9068C31.8519 18.212 31.4604 18.4197 31.0342 18.5039C30.608 18.5881 30.1662 18.5449 29.7647 18.3798C29.3632 18.2146 29.0201 17.935 28.7786 17.5762C28.5372 17.2174 28.4083 16.7956 28.4083 16.3641C28.4083 15.7854 28.6398 15.2305 29.0519 14.8213C29.4639 14.4122 30.0228 14.1823 30.6056 14.1823ZM17.4222 26.182C16.9876 26.182 16.5628 26.0541 16.2015 25.8143C15.8402 25.5746 15.5585 25.2339 15.3922 24.8352C15.2259 24.4365 15.1824 23.9979 15.2672 23.5746C15.352 23.1514 15.5613 22.7627 15.8685 22.4575C16.1758 22.1524 16.5673 21.9446 16.9936 21.8604C17.4198 21.7762 17.8616 21.8195 18.2631 21.9846C18.6645 22.1497 19.0077 22.4294 19.2491 22.7881C19.4906 23.1469 19.6194 23.5688 19.6194 24.0003C19.6194 24.5789 19.3879 25.1339 18.9759 25.543C18.5638 25.9522 18.005 26.182 17.4222 26.182ZM30.6056 33.8182C30.171 33.8182 29.7462 33.6903 29.3848 33.4505C29.0235 33.2108 28.7419 32.8701 28.5756 32.4714C28.4093 32.0727 28.3658 31.634 28.4505 31.2108C28.5353 30.7876 28.7446 30.3988 29.0519 30.0937C29.3592 29.7886 29.7507 29.5808 30.1769 29.4966C30.6031 29.4124 31.0449 29.4556 31.4464 29.6208C31.8479 29.7859 32.191 30.0655 32.4325 30.4243C32.6739 30.7831 32.8028 31.2049 32.8028 31.6365C32.8028 32.2151 32.5713 32.77 32.1592 33.1792C31.7472 33.5884 31.1883 33.8182 30.6056 33.8182Z" fill="white"/>
</svg>
