<svg width="48" height="48" viewBox="0 0 48 48" fill="none" xmlns="http://www.w3.org/2000/svg">
    <g clip-path="url(#clip0_1_2)">
        <path
            d="M40 0H8C3.58172 0 0 3.58172 0 8V40C0 44.4183 3.58172 48 8 48H40C44.4183 48 48 44.4183 48 40V8C48 3.58172 44.4183 0 40 0Z"
            fill="#B6D3ED" />
        <path
            d="M20.5333 30L24 26.5333L27.4667 30L29.3333 28.1333L25.8667 24.6667L29.3333 21.2L27.4667 19.3333L24 22.8L20.5333 19.3333L18.6667 21.2L22.1333 24.6667L18.6667 28.1333L20.5333 30ZM17.3333 36C16.6 36 15.9722 35.7389 15.45 35.2167C14.9278 34.6944 14.6667 34.0667 14.6667 33.3333V16H13.3333V13.3333H20V12H28V13.3333H34.6667V16H33.3333V33.3333C33.3333 34.0667 33.0722 34.6944 32.55 35.2167C32.0278 35.7389 31.4 36 30.6667 36H17.3333ZM30.6667 16H17.3333V33.3333H30.6667V16Z"
            fill="white" />
    </g>
    <defs>
        <clipPath id="clip0_1_2">
            <rect width="48" height="48" fill="white" />
        </clipPath>
    </defs>
</svg>
