<svg width="32" height="32" viewBox="0 0 32 32" fill="none" xmlns="http://www.w3.org/2000/svg">
<circle cx="16" cy="16" r="16" fill="#0079D4"/>
<path d="M10.8843 15.9434L16.7037 21.7628C16.9895 22.0532 17.3299 22.2841 17.7053 22.4422C18.0807 22.6004 18.4838 22.6826 18.8912 22.6842C19.2985 22.6859 19.7022 22.6068 20.0789 22.4516C20.4556 22.2964 20.7978 22.0682 21.0858 21.7801C21.3739 21.492 21.602 21.1497 21.7571 20.773C21.9122 20.3963 21.9912 19.9926 21.9894 19.5852C21.9877 19.1778 21.9054 18.7748 21.7472 18.3994C21.5889 18.024 21.3579 17.6837 21.0675 17.398L14.1577 10.4882C13.8683 10.1987 13.4758 10.036 13.0666 10.0359C12.6573 10.0358 12.2647 10.1983 11.9753 10.4877C11.6858 10.777 11.5231 11.1695 11.523 11.5788C11.5229 11.988 11.6854 12.3806 11.9747 12.6701L18.1573 18.8526C18.2065 18.9 18.2457 18.9567 18.2728 19.0194C18.2998 19.0821 18.3141 19.1496 18.3148 19.2178C18.3155 19.2861 18.3025 19.3539 18.2768 19.4171C18.251 19.4804 18.2129 19.5379 18.1647 19.5862C18.1164 19.6346 18.0591 19.6729 17.9959 19.6988C17.9327 19.7248 17.865 19.7379 17.7967 19.7374C17.7284 19.7369 17.6609 19.7228 17.5981 19.6959C17.5353 19.6691 17.4785 19.63 17.431 19.5809L11.2485 13.3984C11.0079 13.16 10.8168 12.8764 10.6861 12.564C10.5555 12.2515 10.4878 11.9163 10.487 11.5777C10.4862 11.239 10.5523 10.9035 10.6815 10.5904C10.8108 10.2774 11.0005 9.99294 11.24 9.75342C11.4794 9.51391 11.7638 9.32405 12.0769 9.19474C12.3899 9.06543 12.7253 8.99922 13.064 8.99992C13.4027 9.00061 13.7379 9.06819 14.0504 9.19878C14.3629 9.32937 14.6465 9.52039 14.885 9.76088L21.7948 16.6707C22.5665 17.4424 23 18.489 23 19.5804C23 20.6717 22.5665 21.7184 21.7948 22.4901C21.0231 23.2618 19.9764 23.6953 18.8851 23.6953C17.7937 23.6953 16.7471 23.2618 15.9754 22.4901L10.157 16.6707C10.1079 16.6232 10.0687 16.5665 10.0418 16.5037C10.0148 16.441 10.0006 16.3735 10 16.3052C9.99943 16.2369 10.0124 16.1692 10.0383 16.106C10.0642 16.0427 10.1024 15.9853 10.1507 15.937C10.1989 15.8887 10.2564 15.8505 10.3196 15.8247C10.3828 15.7988 10.4505 15.7858 10.5188 15.7864C10.5871 15.787 10.6546 15.8012 10.7174 15.8281C10.7801 15.8551 10.8369 15.8943 10.8843 15.9434Z" fill="white"/>
</svg>
