<svg width="24" height="24" viewBox="0 0 24 24" fill="none" xmlns="http://www.w3.org/2000/svg">
<circle cx="12" cy="12" r="12" fill="#AEDCFF"/>
<path d="M12.9312 14.6199C12.9312 14.8721 12.8342 15.0855 12.6402 15.2601C12.4656 15.4348 12.2424 15.5221 11.9708 15.5221C11.6992 15.5221 11.4663 15.4348 11.2723 15.2601C11.0977 15.0855 11.0104 14.8721 11.0104 14.6199V13.9214C11.0104 13.3587 11.1753 12.9028 11.5052 12.5535C11.8544 12.2043 12.2036 11.8938 12.5529 11.6222C12.8827 11.37 13.1835 11.0886 13.4551 10.7782C13.7461 10.4484 13.8916 10.0603 13.8916 9.61407C13.8916 9.18722 13.7364 8.84768 13.426 8.59545C13.1349 8.32382 12.7372 8.188 12.2327 8.188C11.8059 8.188 11.4663 8.29471 11.2141 8.50814C10.9619 8.72156 10.8164 9.0223 10.7776 9.41034C10.7582 9.62377 10.6515 9.81779 10.4574 9.99241C10.2828 10.1476 10.0694 10.2252 9.81715 10.2252C9.56492 10.2252 9.3321 10.1282 9.11867 9.93421C8.92465 9.74018 8.82764 9.51706 8.82764 9.26483C8.82764 8.76037 8.98286 8.30441 9.29329 7.89697C9.60373 7.47011 10.0112 7.13057 10.5156 6.87835C11.0395 6.62612 11.6119 6.5 12.2327 6.5C13.2611 6.5 14.1148 6.78133 14.7938 7.344C15.4729 7.88726 15.8125 8.59545 15.8125 9.46855C15.8125 10.2834 15.6281 10.914 15.2595 11.3603C14.9103 11.8065 14.5125 12.1946 14.0663 12.5244C13.7558 12.7572 13.4842 12.9901 13.2514 13.2229C13.0379 13.4363 12.9312 13.6691 12.9312 13.9214V14.6199ZM12.2036 19.16C11.835 19.16 11.5149 19.0339 11.2432 18.7817C10.991 18.5488 10.8649 18.2675 10.8649 17.9377C10.8649 17.5884 10.991 17.2974 11.2432 17.0646C11.5149 16.8123 11.835 16.6862 12.2036 16.6862C12.5529 16.6862 12.8536 16.8123 13.1058 17.0646C13.3581 17.2974 13.4842 17.5884 13.4842 17.9377C13.4842 18.2675 13.3581 18.5488 13.1058 18.7817C12.8536 19.0339 12.5529 19.16 12.2036 19.16Z" fill="white"/>
</svg>
