<svg width="92" height="92" viewBox="0 0 92 92" fill="none" xmlns="http://www.w3.org/2000/svg">
<rect width="92" height="92" rx="8" fill="#F50A0A"/>
<path fill-rule="evenodd" clip-rule="evenodd" d="M62.2635 30.885C63.3862 32.0078 63.3862 33.8281 62.2635 34.9509L51.0823 46.132L62.2635 57.3132C63.3862 58.4359 63.3862 60.2563 62.2635 61.379C61.1407 62.5018 59.3203 62.5018 58.1976 61.379L47.0165 50.1979L34.8189 62.3955C33.6961 63.5182 31.8758 63.5182 30.753 62.3955C29.6303 61.2727 29.6303 59.4524 30.753 58.3296L42.9506 46.132L30.753 33.9344C29.6303 32.8117 29.6303 30.9913 30.753 29.8686C31.8758 28.7458 33.6961 28.7458 34.8189 29.8686L47.0165 42.0662L58.1976 30.885C59.3203 29.7623 61.1407 29.7623 62.2635 30.885Z" fill="white"/>
</svg>
