<svg width="72" height="72" viewBox="0 0 72 72" fill="none" xmlns="http://www.w3.org/2000/svg">
<rect x="3" y="4" width="66.4615" height="64" rx="8" fill="#F50A0A"/>
<path fill-rule="evenodd" clip-rule="evenodd" d="M50.6859 51.0011L50.0975 51.613C48.7663 53.0238 46.5038 52.9674 45.0546 51.5283L36.2799 42.5891L27.5052 51.5283C26.056 52.9674 23.7935 53.0238 22.4623 51.613L21.874 51.0011C20.5427 49.5903 20.6062 47.273 22.0554 45.8338L30.7602 36.966L22.6719 28.7262C21.2227 27.287 21.1593 24.9697 22.4905 23.5589L23.0788 22.947C24.4101 21.5362 26.6725 21.5926 28.1217 23.0317L36.2799 31.3428L44.4381 23.0317C45.8873 21.5926 48.1497 21.5362 49.481 22.947L50.0693 23.5589C51.4006 24.9697 51.3371 27.287 49.8879 28.7262L41.7997 36.966L50.5044 45.8338C51.9536 47.273 52.0171 49.5903 50.6859 51.0011Z" fill="white"/>
</svg>
