<svg width="48" height="48" viewBox="0 0 48 48" fill="none" xmlns="http://www.w3.org/2000/svg">
<path d="M31.8231 16.1768C30.5987 14.9525 28.6063 14.9525 27.3819 16.1768C26.1575 17.4013 26.1575 19.3935 27.3819 20.618C27.9941 21.2302 28.7983 21.5364 29.6025 21.5364C30.4067 21.5364 31.2109 21.2303 31.8231 20.618C33.0475 19.3936 33.0475 17.4013 31.8231 16.1768ZM30.6629 19.4579C30.0782 20.0426 29.1268 20.0427 28.5421 19.4579C27.9574 18.8732 27.9574 17.9218 28.5421 17.3371C28.8345 17.0447 29.2185 16.8985 29.6025 16.8985C29.9865 16.8985 30.3706 17.0447 30.6629 17.3371C31.2476 17.9218 31.2476 18.8732 30.6629 19.4579Z" fill="#002041"/>
<path d="M37.8379 10.8582C37.7863 10.4972 37.5028 10.2136 37.1418 10.1621C34.6519 9.80634 32.0743 10.0388 29.688 10.8342C27.3018 11.6296 25.1003 12.9901 23.3218 14.7687L21.4359 16.6546C17.8771 16.0934 14.2698 17.2586 11.7088 19.8198L10.2403 21.2882C10.055 21.4734 9.96938 21.7361 10.0099 21.9949C10.0503 22.2538 10.212 22.4778 10.445 22.5977L14.6631 24.7688L16.5466 26.6523C15.998 26.9543 15.4688 27.3321 14.996 27.8049C12.494 30.3069 12.6491 34.3882 12.6569 34.5608C12.6761 34.9846 13.0154 35.3239 13.4392 35.3431C13.4611 35.3441 13.546 35.3474 13.6829 35.3474C14.6233 35.3474 18.011 35.1881 20.195 33.004C20.6678 32.5312 21.0456 32.0019 21.3476 31.4534L23.2311 33.3369L25.4022 37.555C25.5221 37.788 25.7461 37.9497 26.005 37.9902C26.0473 37.9968 26.0896 38 26.1317 38C26.3475 38 26.5567 37.9147 26.7117 37.7597L28.1801 36.2912C30.7413 33.7301 31.9065 30.1229 31.3453 26.5641L33.2312 24.6782C35.0098 22.8997 36.3703 20.6982 37.1658 18.312C37.9612 15.9257 38.1937 13.3482 37.8379 10.8582ZM36.2887 11.7113C36.375 12.5839 36.3797 13.4578 36.3092 14.3226L33.6775 11.6908C34.5422 11.6204 35.4161 11.6251 36.2887 11.7113ZM12.8689 20.98C14.7572 19.0917 17.3112 18.0918 19.9297 18.1608L14.9957 23.0948L12.1954 21.6534L12.8689 20.98ZM16.3127 24.0982L17.3399 23.071L24.929 30.6602L23.9018 31.6873L16.3127 24.0982ZM19.0349 31.8439C17.6354 33.2434 15.4808 33.5948 14.3202 33.6799C14.4053 32.5188 14.7568 30.3645 16.1561 28.9651C16.6297 28.4915 17.1898 28.1382 17.7686 27.8744L20.1256 30.2314C19.8617 30.8102 19.5085 31.3703 19.0349 31.8439ZM27.02 35.1311L26.3466 35.8045L24.9052 33.0043L29.8392 28.0702C29.9082 30.6888 28.9084 33.2428 27.02 35.1311ZM32.0711 23.5181L26.0892 29.5L18.5 21.9109L24.4819 15.9289C26.4655 13.9454 28.9746 12.5972 31.6629 11.9966L36.0035 16.3371C35.4029 19.0254 34.0546 21.5346 32.0711 23.5181Z" fill="#002041"/>
</svg>
