<svg width="40" height="40" viewBox="0 0 40 40" fill="none" xmlns="http://www.w3.org/2000/svg">
<path d="M12.8193 32C12.5345 32 12.2516 31.9144 12.0102 31.7463C11.5605 31.4323 11.3504 30.8927 11.4728 30.3721L13.1455 23.275L7.4729 18.4833C7.05593 18.1326 6.89664 17.5774 7.06783 17.0693C7.23902 16.5622 7.70479 16.2032 8.25626 16.1541L15.7618 15.4977L18.7292 8.80881C18.948 8.31737 19.4463 8 19.9999 8C20.5536 8 21.0519 8.31737 21.2707 8.80767L24.2381 15.4977L31.7424 16.1541C32.295 16.202 32.7608 16.5622 32.932 17.0693C33.1032 17.5764 32.9449 18.1326 32.5279 18.4833L26.8554 23.274L28.528 30.3709C28.6506 30.8927 28.4403 31.4323 27.9908 31.7453C27.5423 32.0583 26.9442 32.0824 26.4719 31.8089L19.9999 28.0836L13.5279 31.811C13.3091 31.9362 13.0653 32 12.8193 32ZM19.9999 26.4787C20.2459 26.4787 20.4895 26.5424 20.7085 26.6675L26.8165 30.1863L25.2379 23.4879C25.1252 23.0111 25.2932 22.5134 25.6757 22.1909L31.0318 17.6662L23.9455 17.0464C23.4353 17.0015 22.9965 16.6925 22.7971 16.2397L19.9999 9.92736L17.1993 16.2406C17.0022 16.6904 16.5634 16.9994 16.0543 17.0443L8.96702 17.6641L14.323 22.1887C14.7066 22.5122 14.8745 23.009 14.7608 23.4869L13.1834 30.1852L19.2913 26.6675C19.5101 26.5424 19.7539 26.4787 19.9999 26.4787ZM15.7044 15.6271C15.7044 15.6271 15.7044 15.6282 15.7032 15.6292L15.7044 15.6271ZM24.2932 15.624L24.2944 15.6261C24.2944 15.625 24.2944 15.625 24.2932 15.624Z" fill="white"/>
</svg>
