<svg width="83" height="77" viewBox="0 0 83 77" fill="none" xmlns="http://www.w3.org/2000/svg">
<path d="M22.2489 43.1853C21.3179 42.5274 21.1101 41.2183 21.7851 40.2631L33.8709 23.1591C35.6451 20.6482 38.9244 19.507 41.6635 20.7264C45.3481 22.3648 46.3964 26.9038 44.1343 30.1052L35.0345 42.9833L33.5436 41.9299C32.5047 41.1958 32.2728 39.7347 33.0261 38.6687L40.7625 27.72C41.4374 26.7648 41.2297 25.4557 40.2987 24.7979C39.3677 24.14 38.0644 24.3814 37.3894 25.3366L25.1594 42.6448C24.4844 43.6 23.1798 43.8431 22.2489 43.1853Z" fill="#0079D4"/>
<path d="M15.9882 65.8764C11.1377 62.449 8.01797 56.7835 7.86462 50.4769C7.90436 44.67 9.67457 40.2467 13.1237 37.2692C19.0442 32.1541 27.648 33.4079 28.0104 33.4641L27.2863 37.62C27.2203 37.6097 20.1863 36.6141 15.7709 40.4474C13.3189 42.5754 12.061 45.9052 12.0267 50.3409C12.1876 56.8837 16.4858 62.5957 22.7123 64.4943C26.746 66.0214 35.286 63.9195 38.3365 59.8171C39.7446 57.9245 39.6351 56.0361 37.9852 53.8766L36.97 52.3109C36.0482 50.8708 35.6267 49.1304 35.7882 47.4025C35.9588 45.5615 35.3583 43.731 34.1407 42.3803L33.1573 41.2885L36.2706 38.4213L37.2556 39.5143C39.2356 41.715 40.213 44.694 39.9343 47.6935C39.8621 48.4935 40.0564 49.3028 40.4827 49.9698L41.4049 51.4024C44.0976 54.924 44.2142 58.8384 41.6464 62.2934C37.6476 67.6664 27.3724 70.789 21.2906 68.4815C19.3633 67.8954 17.5817 67.0101 15.9862 65.8827L15.9882 65.8764Z" fill="#0079D4"/>
<path d="M24.7938 23.3015C25.2921 17.4969 28.9961 12.0116 35.1085 9.63431C38.9193 8.15252 43.2129 8.28839 46.8616 9.97404C55.8203 14.1146 58.3355 25.2554 52.7732 33.1273C51.1213 35.4651 48.8783 37.3153 46.3142 38.482C45.1551 39.0095 43.8274 38.3334 43.5152 37.1113C43.259 36.1104 43.7818 35.0736 44.7277 34.6367C48.7029 32.8041 51.6063 28.7275 51.5647 23.7478C51.5446 21.2534 50.6712 18.8071 49.1002 16.9187C44.1496 10.9636 35.3068 11.7799 31.0614 17.7881C29.8594 19.4892 29.1339 21.475 28.9498 23.5139C28.8569 24.5509 28.057 25.3894 27.0286 25.4851C25.7699 25.6024 24.6858 24.5743 24.7955 23.3027L24.7938 23.3015Z" fill="#0079D4"/>
<path d="M61.2764 15.4636C62.4704 18.2998 63.0561 21.3549 62.9958 24.4316C62.9354 27.5083 62.2302 30.5381 60.9259 33.3252" stroke="#0079D4" stroke-width="4" stroke-linecap="round"/>
<path d="M70.2764 15.4636C71.4704 18.2998 72.0561 21.3549 71.9958 24.4316C71.9354 27.5083 71.2302 30.5381 69.9259 33.3252" stroke="#0079D4" stroke-width="4" stroke-linecap="round"/>
<path d="M79.2764 15.4636C80.4704 18.2998 81.0561 21.3549 80.9958 24.4316C80.9354 27.5083 80.2302 30.5381 78.9259 33.3252" stroke="#0079D4" stroke-width="4" stroke-linecap="round"/>
</svg>
