<svg width="48" height="48" viewBox="0 0 48 48" fill="none" xmlns="http://www.w3.org/2000/svg">
<path d="M27.7 23.7219C28.6839 22.9528 29.4031 21.8961 29.7575 20.6989C30.1118 19.5018 30.0836 18.224 29.6767 17.0436C29.2698 15.8633 28.5046 14.8393 27.4877 14.1145C26.4708 13.3896 25.253 13 24.004 13C22.755 13 21.5372 13.3896 20.5203 14.1145C19.5034 14.8393 18.7382 15.8633 18.3313 17.0436C17.9244 18.224 17.8962 19.5018 18.2505 20.6989C18.6049 21.8961 19.3241 22.9528 20.308 23.7219C18.4492 24.4612 16.8547 25.7403 15.7303 27.3943C14.6059 29.0483 14.0032 31.0012 14 33.0009V34.0004C14 34.2655 14.1054 34.5198 14.2929 34.7072C14.4804 34.8947 14.7348 35 15 35H33C33.2652 35 33.5196 34.8947 33.7071 34.7072C33.8946 34.5198 34 34.2655 34 34.0004V33.0009C33.9975 31.0021 33.3959 29.0499 32.273 27.396C31.1501 25.7421 29.5573 24.4624 27.7 23.7219ZM20 19.0069C20 18.2161 20.2346 17.4431 20.6741 16.7856C21.1136 16.1281 21.7384 15.6156 22.4693 15.313C23.2002 15.0103 24.0044 14.9312 24.7804 15.0854C25.5563 15.2397 26.269 15.6205 26.8284 16.1797C27.3878 16.7388 27.7688 17.4513 27.9231 18.2269C28.0775 19.0025 27.9983 19.8064 27.6955 20.537C27.3928 21.2676 26.8801 21.892 26.2223 22.3313C25.5645 22.7707 24.7911 23.0052 24 23.0052C22.9391 23.0052 21.9217 22.5839 21.1716 21.8341C20.4214 21.0843 20 20.0673 20 19.0069ZM16 33.0009C16 30.88 16.8429 28.8461 18.3431 27.3464C19.8434 25.8468 21.8783 25.0043 24 25.0043C26.1217 25.0043 28.1566 25.8468 29.6569 27.3464C31.1571 28.8461 32 30.88 32 33.0009H16Z" fill="#002041"/>
</svg>
